<?xml version="1.0" encoding="UTF-8" standalone="no"?>
<svg
   xmlns:dc="http://purl.org/dc/elements/1.1/"
   xmlns:cc="http://creativecommons.org/ns#"
   xmlns:rdf="http://www.w3.org/1999/02/22-rdf-syntax-ns#"
   xmlns:svg="http://www.w3.org/2000/svg"
   xmlns="http://www.w3.org/2000/svg"
   xmlns:xlink="http://www.w3.org/1999/xlink"
   style="enable-background:new"
   id="svg102"
   version="1.1"
   height="49.582283"
   width="49.688999">
  <metadata
     id="metadata106">
    <rdf:RDF>
      <cc:Work
         rdf:about="">
        <dc:format>image/svg+xml</dc:format>
        <dc:type
           rdf:resource="http://purl.org/dc/dcmitype/StillImage" />
        <dc:title></dc:title>
      </cc:Work>
    </rdf:RDF>
  </metadata>
  <defs
     id="defs56">
    <linearGradient
       id="g1"
       y2="0.60117739"
       x2="0"
       y1="0.55806792"
       x1="1">
      <stop
         id="stop2"
         offset="0"
         stop-color="#FF5C34" />
      <stop
         id="stop4"
         offset="1"
         stop-color="#EB0256" />
    </linearGradient>
    <linearGradient
       id="g2"
       y2="0"
       x2="0.30560157"
       y1="1.1191301"
       x1="0.5">
      <stop
         id="stop7"
         offset="0"
         stop-color="#FFB000" />
      <stop
         id="stop9"
         offset="1"
         stop-color="#FF7725" />
    </linearGradient>
    <linearGradient
       xlink:href="#g4"
       id="g3"
       gradientUnits="userSpaceOnUse"
       gradientTransform="scale(0.85441985,1.1703848)"
       x1="38.66045"
       y1="42.313534"
       x2="29.417906"
       y2="17.769199" />
    <linearGradient
       x1="38.66045"
       y1="42.313534"
       x2="29.417906"
       y2="17.769199"
       id="g4"
       gradientTransform="scale(0.85441985,1.1703848)"
       gradientUnits="userSpaceOnUse">
      <stop
         id="stop20"
         stop-color="#21EFE3"
         offset="0%" />
      <stop
         id="stop22"
         stop-color="#2598FF"
         offset="100%" />
    </linearGradient>
    <linearGradient
       x1="32.778084"
       y1="31.292349"
       x2="-5.737164"
       y2="34.564075"
       id="g5"
       gradientTransform="scale(0.85441985,1.1703848)"
       gradientUnits="userSpaceOnUse">
      <stop
         id="stop25"
         stop-color="#A63FDB"
         offset="0%" />
      <stop
         id="stop27"
         stop-color="#FF257E"
         offset="100%" />
    </linearGradient>
    <linearGradient
       xlink:href="#g1"
       id="g6"
       gradientUnits="userSpaceOnUse"
       gradientTransform="scale(0.85441985,1.1703848)"
       x1="26.799479"
       y1="19.639755"
       x2="6.4907837"
       y2="20.515251" />
    <linearGradient
       xlink:href="#g1"
       id="g7"
       x1="26.799479"
       y1="19.639755"
       x2="6.4907837"
       y2="20.515251"
       gradientTransform="matrix(0.73238181,-0.44005875,0.60279359,1.0032156,7.0612668,16.678016)"
       gradientUnits="userSpaceOnUse" />
    <linearGradient
       xlink:href="#g2"
       id="g8"
       x1="15.185128"
       y1="33.220253"
       x2="9.5916662"
       y2="1.0193164"
       gradientTransform="matrix(0.87275201,0.73232484,-0.56419841,0.67238452,33.373061,2.1802866)"
       gradientUnits="userSpaceOnUse" />
    <linearGradient
       xlink:href="#g10"
       id="g9"
       gradientUnits="userSpaceOnUse"
       gradientTransform="scale(0.85441984,1.1703848)"
       x1="16.690788"
       y1="19.195547"
       x2="57.873302"
       y2="21.720842" />
    <linearGradient
       x1="16.690788"
       y1="19.195547"
       x2="57.873302"
       y2="21.720842"
       id="g10"
       gradientTransform="scale(0.85441984,1.1703848)"
       gradientUnits="userSpaceOnUse">
      <stop
         id="stop34"
         stop-color="#9EE85D"
         offset="0%" />
      <stop
         id="stop36"
         stop-color="#0ED061"
         offset="100%" />
    </linearGradient>
    <linearGradient
       x1="40.01442"
       y1="3.0503507"
       x2="21.610674"
       y2="22.693472"
       id="g11"
       gradientTransform="matrix(0.8028135,0.67363955,-0.61334952,0.73096044,33.373061,2.1802866)"
       gradientUnits="userSpaceOnUse">
      <stop
         id="stop39"
         stop-color="#17C934"
         offset="0" />
      <stop
         id="stop41"
         stop-color="#03FF6E"
         offset="1" />
    </linearGradient>
    <linearGradient
       x1="31.906258"
       y1="22.861416"
       x2="56.143276"
       y2="28.198187"
       id="g12"
       gradientTransform="matrix(0.67306192,0.5647652,-0.7315899,0.87187364,33.373061,2.1802866)"
       gradientUnits="userSpaceOnUse">
      <stop
         id="stop44"
         stop-color="#00FFF0"
         offset="0" />
      <stop
         id="stop46"
         stop-color="#0087FF"
         offset="1" />
    </linearGradient>
    <linearGradient
       x1="18.604218"
       y1="60.088772"
       x2="29.551889"
       y2="34.263325"
       id="g13"
       gradientTransform="matrix(0.93316856,0.78302028,-0.52767025,0.62885203,33.373061,2.1802866)"
       gradientUnits="userSpaceOnUse">
      <stop
         id="stop49"
         stop-color="#A63FDB"
         offset="0" />
      <stop
         id="stop51"
         stop-color="#FF257E"
         offset="1" />
    </linearGradient>
    <linearGradient
       xlink:href="#g1"
       id="g14"
       x1="30.973358"
       y1="27.509178"
       x2="1.1089396"
       y2="28.796618"
       gradientTransform="matrix(0.64006516,0.53707767,-0.76930493,0.9168206,33.373061,2.1802866)"
       gradientUnits="userSpaceOnUse" />
    <linearGradient
       xlink:href="#g2"
       id="g15"
       gradientUnits="userSpaceOnUse"
       gradientTransform="matrix(0.87275201,0.73232484,-0.56419841,0.67238452,33.373061,2.1802866)"
       x1="15.185128"
       y1="33.220253"
       x2="9.5916662"
       y2="1.0193164" />
    <linearGradient
       y2="85.349998"
       x2="519.52002"
       y1="832.48999"
       x1="519.52002"
       gradientTransform="matrix(-0.09058464,0,0,0.09058464,281.81967,-8.9318819)"
       gradientUnits="userSpaceOnUse"
       id="linearGradient887"
       xlink:href="#a26385e9-dbb5-4257-86ba-bfe3022541ed" />
    <linearGradient
       id="a26385e9-dbb5-4257-86ba-bfe3022541ed"
       x1="519.52002"
       y1="832.48999"
       x2="519.52002"
       y2="85.349998"
       gradientTransform="matrix(-1,0,0,1,1096.85,0)"
       gradientUnits="userSpaceOnUse">
      <stop
         offset="0"
         stop-color="gray"
         stop-opacity="0.25"
         id="stop2-3" />
      <stop
         offset="0.54"
         stop-color="gray"
         stop-opacity="0.12"
         id="stop4-6" />
      <stop
         offset="1"
         stop-color="gray"
         stop-opacity="0.1"
         id="stop6" />
    </linearGradient>
    <filter
       id="filter447"
       style="color-interpolation-filters:sRGB">
      <feBlend
         id="feBlend449"
         in2="BackgroundImage"
         mode="overlay" />
    </filter>
  </defs>
  <g
     transform="translate(-12.5,-12.917718)"
     style="opacity:1;filter:url(#filter447)"
     id="layer4">
    <path
       id="path58"
       d="M 37.344501,37.708859 C 33.27843,32.146166 25.502814,30.871306 19.977177,34.86138 14.451539,38.851453 13.268326,46.5955 17.334396,52.158194 l 0.307623,0.420851 C 11.011178,43.906438 10.684942,31.740724 17.295264,22.825752 l 0.117697,-0.1564 c 4.095389,-5.4421 11.877186,-6.487086 17.381128,-2.33404 5.503943,4.153045 6.6458,11.931447 2.550412,17.373547 z"
       style="fill:url(#g14)" />
    <path
       id="path60"
       d="m 37.344501,37.708859 c -6.472999,2.189353 -9.877881,9.222288 -7.605018,15.708503 2.272862,6.486214 9.362782,9.969509 15.835779,7.780157 l 0.428828,-0.145041 c -8.049827,2.880268 -17.427966,1.494994 -24.513119,-4.450146 -1.457037,-1.222598 -2.741004,-2.57418 -3.848952,-4.023287 L 17.334396,52.158194 C 13.268326,46.5955 14.451539,38.851453 19.977177,34.86138 25.502814,30.871306 33.27843,32.146166 37.344501,37.708859 Z"
       style="fill:url(#g13)" />
    <path
       id="path62"
       d="m 37.344501,37.708859 c 0.04163,6.84562 5.636761,12.42884 12.497071,12.470471 6.860311,0.04163 12.387942,-5.47409 12.346311,-12.319709 l -9.53e-4,-0.156747 c 0.07327,5.679151 -1.798009,11.388946 -5.714387,16.056296 -2.883411,3.436311 -6.515801,5.879029 -10.468453,7.293308 l -0.428828,0.145041 C 39.102265,63.386871 32.012345,59.903576 29.739483,53.417362 27.46662,46.931147 30.871502,39.898212 37.344501,37.708859 Z"
       style="fill:url(#g12)" />
    <path
       id="path64"
       d="M 37.344501,37.708859 C 43.881909,39.863866 50.867988,36.343413 52.948347,29.845706 55.028706,23.348 51.415553,16.33359 44.878144,14.178584 l -0.535192,-0.176422 c 3.149862,0.958982 6.167442,2.558035 8.855077,4.813224 5.838829,4.899353 8.898368,11.870026 8.988901,18.887488 l 9.53e-4,0.156747 c 0.04163,6.845619 -5.486,12.361341 -12.346311,12.319709 -6.86031,-0.04163 -12.45544,-5.624851 -12.497071,-12.470471 z"
       style="fill:url(#g11)" />
    <path
       id="path66"
       style="fill:url(#g15)"
       d="m 37.344501,37.708859 c 4.095388,-5.4421 2.953531,-13.220502 -2.550412,-17.373547 -5.503942,-4.153046 -13.285739,-3.10806 -17.381128,2.33404 l -0.117698,0.156401 c 0.293382,-0.395668 0.600429,-0.784933 0.921193,-1.167205 6.528123,-7.779903 16.895374,-10.466821 26.126496,-7.656386 l 0.535192,0.176422 c 6.537409,2.155006 10.150562,9.169416 8.070203,15.667122 -2.080359,6.497707 -9.066438,10.01816 -15.603846,7.863153 z" />
    <g
       id="g72"
       style="opacity:0.54425222;fill:none"
       transform="matrix(-0.37460713,0.92718385,-0.92718518,-0.37460659,81.342244,14.622857)">
      <path
         id="path68"
         d="m 28.379451,9.2701483 0.186983,-0.07462 c 6.393149,-2.551328 13.669757,0.4995351 16.252757,6.8142937 2.583,6.314759 -0.505736,13.502142 -6.898886,16.05347 -0.05343,-1.007011 -0.227732,-1.979458 -0.50829,-2.904343 3.429966,-1.856689 5.75552,-5.45605 5.75552,-9.591913 0,-6.036745 -4.954499,-10.9304939 -11.066184,-10.9304939 -1.305803,0 -2.558782,0.223396 -3.7219,0.6336062 z"
         style="fill:url(#g9)" />
      <path
         id="path70"
         d="m 28.379451,9.2701483 0.186983,-0.07462 c 6.393149,-2.551328 13.669757,0.4995351 16.252757,6.8142937 2.583,6.314759 -0.505736,13.502142 -6.898886,16.05347 -0.05343,-1.007011 -0.227732,-1.979458 -0.50829,-2.904343 3.429966,-1.856689 5.75552,-5.45605 5.75552,-9.591913 0,-6.036745 -4.954499,-10.9304939 -11.066184,-10.9304939 -1.305803,0 -2.558782,0.223396 -3.7219,0.6336062 z"
         style="mix-blend-mode:overlay;fill:#000000;fill-opacity:0.49988679" />
    </g>
    <path
       id="path74"
       style="opacity:0.1;fill:url(#g8)"
       d="m 37.344501,37.708859 c 4.095388,-5.4421 2.953531,-13.220502 -2.550412,-17.373547 -5.503942,-4.153046 -13.285739,-3.10806 -17.381128,2.33404 l -0.117698,0.156401 c 0.293382,-0.395668 0.600429,-0.784933 0.921193,-1.167205 6.528123,-7.779903 16.895374,-10.466821 26.126496,-7.656386 l 0.535192,0.176422 c 6.537409,2.155006 10.150562,9.169416 8.070203,15.667122 -2.080359,6.497707 -9.066438,10.01816 -15.603846,7.863153 z" />
    <path
       id="path76"
       style="opacity:0.18013395;fill:url(#g7)"
       d="m 17.324475,22.990984 0.121843,-0.160265 c 4.165973,-5.47963 11.974565,-6.61226 17.440978,-2.529799 5.466411,4.082461 6.520625,11.834067 2.354651,17.313698 -0.564448,-0.835659 -1.214702,-1.579436 -1.931538,-2.227718 1.983791,-3.358057 2.123373,-7.64106 -0.0068,-11.186188 -3.109159,-5.1745 -9.87647,-6.817505 -15.115214,-3.669755 -1.119294,0.672539 -2.07825,1.509358 -2.863963,2.460027 z" />
    <g
       id="g82"
       style="opacity:0.18013395;fill:none"
       transform="matrix(0.85716853,-0.51503807,0.51503881,0.8571673,7.2277095,16.834214)">
      <path
         id="path78"
         d="m 5.5458544,10.697205 0.1869826,-0.07462 c 6.39315,-2.5513278 13.669757,0.499535 16.252757,6.814294 2.583,6.314758 -0.505736,13.502141 -6.898886,16.053469 -0.05343,-1.007011 -0.227732,-1.979458 -0.50829,-2.904342 3.429966,-1.856689 5.755521,-5.45605 5.755521,-9.591914 0,-6.036745 -4.9545,-10.930493 -11.0661847,-10.930493 -1.3058034,0 -2.5587821,0.223396 -3.7218999,0.633606 z"
         style="fill:url(#g6)" />
      <path
         id="path80"
         d="m 5.5458544,10.697205 0.1869826,-0.07462 c 6.39315,-2.5513278 13.669757,0.499535 16.252757,6.814294 2.583,6.314758 -0.505736,13.502141 -6.898886,16.053469 -0.05343,-1.007011 -0.227732,-1.979458 -0.50829,-2.904342 3.429966,-1.856689 5.755521,-5.45605 5.755521,-9.591914 0,-6.036745 -4.9545,-10.930493 -11.0661847,-10.930493 -1.3058034,0 -2.5587821,0.223396 -3.7218999,0.633606 z"
         style="mix-blend-mode:multiply;fill:#000000;fill-opacity:0.77284307" />
    </g>
    <g
       id="g88"
       style="opacity:0.5841518;fill:none"
       transform="matrix(-0.22495138,-0.97437006,0.97437146,-0.22495105,-3.413458,67.921439)">
      <path
         id="path84"
         d="m 10.654093,23.764822 0.186983,-0.07462 c 6.393149,-2.551328 13.669757,0.499535 16.252757,6.814293 2.583,6.314759 -0.505736,13.502142 -6.898886,16.05347 -0.05343,-1.007011 -0.227732,-1.979458 -0.50829,-2.904343 3.429966,-1.856689 5.75552,-5.45605 5.75552,-9.591913 0,-6.036745 -4.954499,-10.930493 -11.066184,-10.930493 -1.305803,0 -2.558782,0.223396 -3.7219,0.633606 z"
         style="fill:url(#g5)" />
      <path
         id="path86"
         d="m 10.654093,23.764822 0.186983,-0.07462 c 6.393149,-2.551328 13.669757,0.499535 16.252757,6.814293 2.583,6.314759 -0.505736,13.502142 -6.898886,16.05347 -0.05343,-1.007011 -0.227732,-1.979458 -0.50829,-2.904343 3.429966,-1.856689 5.75552,-5.45605 5.75552,-9.591913 0,-6.036745 -4.954499,-10.930493 -11.066184,-10.930493 -1.305803,0 -2.558782,0.223396 -3.7219,0.633606 z"
         style="mix-blend-mode:overlay;fill:#000000;fill-opacity:0.50308539" />
    </g>
    <g
       id="g94"
       style="opacity:0.56222097;fill:none"
       transform="matrix(-0.99863096,-0.05233596,0.05233603,-0.99862953,69.65441,85.048735)">
      <path
         id="path90"
         d="m 25.135241,22.73235 0.186983,-0.07462 c 6.39315,-2.551328 13.669757,0.499535 16.252757,6.814293 2.583001,6.314759 -0.505736,13.502142 -6.898886,16.05347 -0.05343,-1.007011 -0.227731,-1.979458 -0.50829,-2.904343 3.429966,-1.856689 5.755521,-5.45605 5.755521,-9.591913 0,-6.036745 -4.9545,-10.930494 -11.066185,-10.930494 -1.305803,0 -2.558782,0.223396 -3.7219,0.633607 z"
         style="fill:url(#g3)" />
      <path
         id="path92"
         d="m 25.135241,22.73235 0.186983,-0.07462 c 6.39315,-2.551328 13.669757,0.499535 16.252757,6.814293 2.583001,6.314759 -0.505736,13.502142 -6.898886,16.05347 -0.05343,-1.007011 -0.227731,-1.979458 -0.50829,-2.904343 3.429966,-1.856689 5.755521,-5.45605 5.755521,-9.591913 0,-6.036745 -4.9545,-10.930494 -11.066185,-10.930494 -1.305803,0 -2.558782,0.223396 -3.7219,0.633607 z"
         style="mix-blend-mode:overlay;fill:#000000" />
    </g>
    <path
       id="path96"
       d="m 44.686954,14.115568 0.191202,0.06303 c 6.537408,2.155006 10.150561,9.169416 8.070202,15.667122 -2.080359,6.497706 -9.066438,10.01816 -15.603846,7.863153 0.606364,-0.805759 1.097919,-1.662736 1.477505,-2.551578 3.820968,0.782433 7.916076,-0.48 10.574561,-3.648255 3.88035,-4.624415 3.230624,-11.557934 -1.451204,-15.486449 -1.000306,-0.839354 -2.10374,-1.473623 -3.25842,-1.907021 z"
       style="mix-blend-mode:overlay;fill:#000000;fill-opacity:0.49617866" />
  </g>
  <g
     transform="translate(-12.5,-12.917718)"
     style="display:inline;opacity:1"
     id="layer3">
    <g
       id="g457">
      <g
         style="image-rendering:auto"
         transform="matrix(0.46524817,0,0,0.46524817,-220.42763,-8.4650049)"
         id="layer1">
        <g
           style="opacity:1"
           id="layer2">
          <g
             transform="translate(319.69342,64.960442)"
             id="g277">
            <path
               style="fill:url(#linearGradient887);stroke-width:0.09058464"
               d="m 220.58355,-1.2004795 h 28.353 a 2.8081241,2.8081241 0 0 1 2.80813,2.7990674 V 63.679864 a 2.8081241,2.8081241 0 0 1 -2.80813,2.799067 h -28.353 a 2.8081241,2.8081241 0 0 1 -2.80811,-2.799067 V 1.5976809 a 2.8081241,2.8081241 0 0 1 2.80811,-2.7981604 z"
               id="path16" />
            <rect
               style="fill:#4e5a86;stroke-width:0.09058464"
               x="-251.4847"
               y="-66.219849"
               width="33.451099"
               height="66.902199"
               rx="2.4340096"
               ry="2.4340096"
               transform="scale(-1)"
               id="rect18" />
            <rect
               style="fill:#ffffff;stroke-width:0.09058464"
               x="-249.02083"
               y="-59.996696"
               width="28.524202"
               height="54.454964"
               transform="scale(-1)"
               id="rect20" />
            <circle
               style="fill:#ffffff;stroke-width:0.09058464"
               cx="238.12979"
               cy="2.4292343"
               r="0.25907207"
               id="circle22" />
            <rect
               style="fill:#ffffff;stroke-width:0.09058464"
               x="-236.83263"
               y="-2.6883314"
               width="5.7050209"
               height="0.51905"
               rx="0.090584643"
               ry="0.090584643"
               transform="scale(-1)"
               id="rect24" />
            <circle
               style="fill:#ffffff;stroke-width:0.09058464"
               cx="234.88864"
               cy="62.589226"
               r="1.8153163"
               id="circle26" />
            <ellipse
               style="opacity:0.1;fill:#6c63ff;stroke-width:0.09058464"
               cx="233.40039"
               cy="64.434441"
               rx="23.008501"
               ry="4.4386477"
               id="ellipse28" />
            <rect
               style="opacity:0.1;fill:#6c63ff;stroke-width:0.09058464"
               x="223.75311"
               y="13.978788"
               width="22.012068"
               height="29.44001"
               id="rect30" />
            <path
               style="fill:none;stroke:#535461;stroke-width:0.18116929;stroke-miterlimit:10"
               d="m 252.89873,65.466194 c 0,0 -1.31168,-6.64529 1.38956,-11.199889 a 10.263241,10.263241 0 0 0 1.41583,-6.335483 17.260904,17.260904 0 0 0 -0.63409,-3.092559"
               stroke-miterlimit="10"
               id="path74-7" />
            <path
               style="fill:#6c63ff;stroke-width:0.09058464"
               d="m 256.75672,41.957668 c -0.0724,0.792613 -1.72111,2.960306 -1.72111,2.960306 0,0 -1.2247,-2.43129 -1.15134,-3.22481 a 1.4421076,1.4421076 0 1 1 2.87154,0.263596 z"
               id="path76-5" />
            <path
               style="fill:#6c63ff;stroke-width:0.09058464"
               d="m 258.72694,46.567519 c -0.49187,0.625941 -3.0527,1.550813 -3.0527,1.550813 0,0 0.29348,-2.706676 0.78537,-3.33261 a 1.4421076,1.4421076 0 0 1 2.26462,1.781797 z"
               id="path78-3" />
            <path
               style="fill:#6c63ff;stroke-width:0.09058464"
               d="m 257.93343,54.064307 c -0.74099,0.291683 -3.41777,-0.202902 -3.41777,-0.202902 0,0 1.61965,-2.188529 2.36063,-2.480212 a 1.4421076,1.4421076 0 0 1 1.05714,2.683119 z"
               id="path80-5" />
            <path
               style="fill:#6c63ff;stroke-width:0.09058464"
               d="m 256.05651,59.601743 c -0.68121,0.413066 -3.40328,0.377739 -3.40328,0.377739 0,0 1.22653,-2.430383 1.90771,-2.843449 a 1.4421076,1.4421076 0 1 1 1.49557,2.46571 z"
               id="path82" />
            <path
               style="fill:#6c63ff;stroke-width:0.09058464"
               d="m 252.64508,47.995134 c 0.51816,0.605105 3.1152,1.420368 3.1152,1.420368 0,0 -0.40763,-2.69218 -0.92486,-3.296376 a 1.4421076,1.4421076 0 1 0 -2.19034,1.876008 z"
               id="path84-6" />
            <path
               style="fill:#6c63ff;stroke-width:0.09058464"
               d="m 250.53174,54.498203 c 0.67486,0.422129 3.39782,0.423036 3.39782,0.423036 0,0 -1.1939,-2.445787 -1.86965,-2.868821 a 1.4421076,1.4421076 0 1 0 -1.52817,2.445785 z"
               id="path86-2" />
            <path
               style="fill:#6c63ff;stroke-width:0.09058464"
               d="m 249.34418,61.101827 c 0.59424,0.529921 3.27735,0.991902 3.27735,0.991902 0,0 -0.76362,-2.61337 -1.35876,-3.143285 a 1.4421076,1.4421076 0 1 0 -1.91949,2.152287 z"
               id="path88" />
            <path
               style="fill:#6c63ff;stroke-width:0.09058464"
               d="m 231.56577,10.289987 a 3.4295348,3.4295348 0 0 0 -3.42952,-3.4295355 h -18.68581 a 3.4295359,3.4295359 0 0 0 0,6.8590705 l 15.62314,-0.02988 3.59348,3.135132 v -3.15144 A 3.4268171,3.4268171 0 0 0 231.56577,10.29 Z"
               id="path90-9" />
            <circle
               style="opacity:0.2;fill:#ffffff;stroke-width:0.09058464"
               cx="210.04285"
               cy="10.407731"
               r="1.1830356"
               id="circle92" />
            <circle
               style="opacity:0.2;fill:#ffffff;stroke-width:0.09058464"
               cx="214.06299"
               cy="10.407731"
               r="1.1830356"
               id="circle94" />
            <circle
               style="opacity:0.2;fill:#ffffff;stroke-width:0.09058464"
               cx="218.08408"
               cy="10.407731"
               r="1.1830356"
               id="circle96" />
            <rect
               style="fill:#6c63ff;stroke-width:0.09058464"
               x="223.70779"
               y="48.129181"
               width="9.420804"
               height="2.8081243"
               id="rect98" />
            <rect
               style="opacity:0.1;fill:#6c63ff;stroke-width:0.09058464"
               x="236.29907"
               y="48.129181"
               width="9.420804"
               height="2.8081243"
               id="rect100" />
            <path
               style="fill:#ee7b0e;fill-opacity:1;stroke:none;stroke-width:0.39877287px;stroke-linecap:butt;stroke-linejoin:miter;stroke-opacity:1"
               d="m 226.43202,48.543745 c 0.1552,-5.07183 1.33557,-9.88736 2.51385,-14.7034 l 11.18922,0.20848 c 0.96681,2.53872 1.47268,4.51385 2.04322,7.33063 0.72228,-0.10617 1.63613,0.58322 2.40468,1.00917 0.95259,0.7607 1.01757,1.86823 1.04246,2.98843 -0.91888,0.51959 -1.88691,0.6354 -3.34639,0.75604 -0.87129,-0.6299 -2.21927,-1.3383 -3.68281,-3.00383 -2.18994,0.37489 -4.31887,0.53629 -6.24847,0 l -2.38677,6.38541 c -1.38616,0.20092 -2.66287,0.12815 -3.52899,-0.97093 z"
               id="path961-1-6" />
            <path
               style="fill:#ee7b0e;fill-opacity:1;stroke:none;stroke-width:0.39877287px;stroke-linecap:butt;stroke-linejoin:miter;stroke-opacity:1"
               d="m 230.38693,21.816615 c -1.8751,2.79634 -1.73552,5.99558 -2.35884,9.04226 -1.27705,6.24204 14.0321,8.19235 12.97369,0.29487 -0.43292,-3.23017 -0.10602,-6.71364 -2.064,-9.4354 -0.9447,0.85411 -1.85396,1.72342 -2.16227,2.85027 -1.60511,-0.58881 -2.9775,-0.24678 -4.32457,0.19659 -0.47648,-1.30014 -1.21855,-2.20191 -2.06401,-2.94859 z"
               id="path959-9-7" />
            <rect
               style="opacity:1;fill:#481800;fill-opacity:1;stroke:none;stroke-width:0.39877287;stroke-linecap:round;stroke-linejoin:round;stroke-miterlimit:4;stroke-dasharray:none;stroke-opacity:1"
               id="rect963-4-5"
               width="0.59073234"
               height="2.6409397"
               x="231.44785"
               y="27.620195"
               ry="0.29536617" />
            <rect
               style="opacity:1;fill:#481800;fill-opacity:1;stroke:none;stroke-width:0.39877287;stroke-linecap:round;stroke-linejoin:round;stroke-miterlimit:4;stroke-dasharray:none;stroke-opacity:1"
               id="rect963-7-7-3"
               width="0.5907324"
               height="2.6409397"
               x="236.01736"
               y="27.585466"
               ry="0.2953662" />
            <path
               style="fill:#481800;fill-opacity:1;stroke:none;stroke-width:0.39877287px;stroke-linecap:butt;stroke-linejoin:miter;stroke-opacity:1"
               d="m 235.16596,30.747655 h -2.2587 l 1.00773,1.28571 z"
               id="path980-8-5" />
            <path
               style="fill:none;stroke:#481800;stroke-width:0.39940086;stroke-linecap:butt;stroke-linejoin:miter;stroke-miterlimit:4;stroke-dasharray:none;stroke-opacity:1"
               d="m 232.87602,34.040375 c 1.76209,-0.0973 3.1945,0.21621 4.10041,-1.25096"
               id="path982-4-6" />
            <path
               style="fill:#a9550d;fill-opacity:1;stroke:none;stroke-width:0.39877287px;stroke-linecap:butt;stroke-linejoin:miter;stroke-opacity:1"
               d="m 228.07955,30.569965 c -0.0183,0.0962 -0.0318,0.19315 -0.0514,0.28896 -0.6013,2.93911 2.47426,4.92651 5.78696,5.3824 -0.0898,-0.52384 0,0 -0.0898,-0.52384 -2.62078,-0.29956 -5.06396,-1.91042 -5.64574,-5.14752 z"
               id="path959-0-5-2" />
            <path
               style="fill:#a9550d;fill-opacity:1;stroke:none;stroke-width:0.39877287px;stroke-linecap:butt;stroke-linejoin:miter;stroke-opacity:1"
               d="m 228.94561,33.840385 c -1.17827,4.81606 -2.35813,9.63137 -2.51335,14.70318 0.86613,1.09906 2.14283,1.17215 3.52898,0.97123 l 0.17524,-0.46964 c -1.23366,0.12889 -2.35545,-0.0221 -3.13955,-1.01718 0.14952,-4.88775 1.25361,-9.53746 2.38796,-14.17902 z m 3.96747,8.77299 -0.22275,0.59505 c 1.83832,0.42971 3.84412,0.27353 5.90607,-0.0794 1.46352,1.66553 2.81111,2.37413 3.68241,3.00403 1.45945,-0.12058 2.42783,-0.23668 3.34673,-0.75625 -0.001,-0.083 -0.009,-0.16413 -0.0119,-0.2469 -0.76129,0.29505 -1.60946,0.39167 -2.76962,0.48756 -0.87128,-0.62991 -2.21966,-1.33851 -3.6832,-3.00405 -2.18992,0.37489 -4.31838,0.53631 -6.24796,0 z"
               id="path961-3-0-9" />
            <path
               style="fill:#bf620f;fill-opacity:1;stroke:none;stroke-width:0.39877287px;stroke-linecap:butt;stroke-linejoin:miter;stroke-opacity:1"
               d="m 242.17831,41.379455 c -0.44726,0.12043 -0.9405,0.14875 -1.25795,0.52864 l -0.29879,-0.30134 c 0.47694,-0.32768 0.9873,-0.45461 1.55674,-0.2273 z"
               id="path1048-3-1" />
          </g>
        </g>
      </g>
    </g>
  </g>
</svg>
