<?xml version="1.0" encoding="UTF-8" standalone="no"?>
<!-- Created with Inkscape (http://www.inkscape.org/) -->

<svg
   width="1024"
   height="1024"
   viewBox="0 0 270.93333 270.93333"
   version="1.1"
   id="svg5"
   xml:space="preserve"
   inkscape:version="1.2 (dc2aedaf03, 2022-05-15)"
   sodipodi:docname="Red_Panda_version2_emotion4_client1.svg"
   xmlns:inkscape="http://www.inkscape.org/namespaces/inkscape"
   xmlns:sodipodi="http://sodipodi.sourceforge.net/DTD/sodipodi-0.dtd"
   xmlns:xlink="http://www.w3.org/1999/xlink"
   xmlns="http://www.w3.org/2000/svg"
   xmlns:svg="http://www.w3.org/2000/svg"><sodipodi:namedview
     id="namedview7"
     pagecolor="#505050"
     bordercolor="#ffffff"
     borderopacity="1"
     inkscape:showpageshadow="0"
     inkscape:pageopacity="0"
     inkscape:pagecheckerboard="1"
     inkscape:deskcolor="#505050"
     inkscape:document-units="px"
     showgrid="false"
     inkscape:zoom="1.4142136"
     inkscape:cx="568.86741"
     inkscape:cy="566.74608"
     inkscape:window-width="1918"
     inkscape:window-height="2088"
     inkscape:window-x="1906"
     inkscape:window-y="0"
     inkscape:window-maximized="0"
     inkscape:current-layer="layer7"
     showguides="false" /><defs
     id="defs2"><linearGradient
       inkscape:collect="always"
       id="linearGradient11839"><stop
         style="stop-color:#4f1921;stop-opacity:1;"
         offset="0"
         id="stop11835" /><stop
         style="stop-color:#4f1921;stop-opacity:0;"
         offset="1"
         id="stop11837" /></linearGradient><linearGradient
       inkscape:collect="always"
       id="linearGradient11831"><stop
         style="stop-color:#4f1921;stop-opacity:1;"
         offset="0"
         id="stop11827" /><stop
         style="stop-color:#4f1921;stop-opacity:0;"
         offset="1"
         id="stop11829" /></linearGradient><linearGradient
       inkscape:collect="always"
       id="linearGradient11823"><stop
         style="stop-color:#4f1921;stop-opacity:1;"
         offset="0"
         id="stop11819" /><stop
         style="stop-color:#4f1921;stop-opacity:0;"
         offset="1"
         id="stop11821" /></linearGradient><inkscape:path-effect
       effect="taper_stroke"
       id="path-effect9810"
       is_visible="true"
       lpeversion="1"
       stroke_width="1"
       attach_start="0.46092811"
       end_offset="0.0058639626"
       start_smoothing="0.5"
       end_smoothing="0.5"
       jointype="extrapolated"
       start_shape="center"
       end_shape="center"
       miter_limit="100" /><inkscape:path-effect
       effect="fill_between_many"
       id="path-effect9544"
       is_visible="true"
       lpeversion="1.2"
       linkedpaths="#path50146,0,1|#path50148,0,1"
       method="bsplinespiro"
       join="true"
       close="true"
       autoreverse="true" /><linearGradient
       inkscape:collect="always"
       id="linearGradient9470"><stop
         style="stop-color:#d7b499;stop-opacity:1;"
         offset="0"
         id="stop9466" /><stop
         style="stop-color:#d7b499;stop-opacity:0;"
         offset="1"
         id="stop9468" /></linearGradient><linearGradient
       inkscape:collect="always"
       id="linearGradient46599"><stop
         style="stop-color:#c16f35;stop-opacity:1;"
         offset="0"
         id="stop46595" /><stop
         style="stop-color:#c16f35;stop-opacity:0;"
         offset="1"
         id="stop46597" /></linearGradient><linearGradient
       inkscape:collect="always"
       id="linearGradient42061"><stop
         style="stop-color:#000000;stop-opacity:1;"
         offset="0"
         id="stop42057" /><stop
         style="stop-color:#000000;stop-opacity:0;"
         offset="1"
         id="stop42059" /></linearGradient><linearGradient
       inkscape:collect="always"
       id="linearGradient40600"><stop
         style="stop-color:#43496b;stop-opacity:1;"
         offset="0"
         id="stop40596" /><stop
         style="stop-color:#43496b;stop-opacity:0;"
         offset="1"
         id="stop40598" /></linearGradient><inkscape:path-effect
       effect="taper_stroke"
       id="path-effect37465"
       is_visible="true"
       lpeversion="1"
       stroke_width="1.00012"
       attach_start="0.34691137"
       end_offset="1.0688019"
       start_smoothing="0.5"
       end_smoothing="0.5"
       jointype="extrapolated"
       start_shape="center"
       end_shape="center"
       miter_limit="100" /><linearGradient
       inkscape:collect="always"
       id="linearGradient32607"><stop
         style="stop-color:#43496b;stop-opacity:1;"
         offset="0"
         id="stop32603" /><stop
         style="stop-color:#43496b;stop-opacity:0;"
         offset="1"
         id="stop32605" /></linearGradient><linearGradient
       inkscape:collect="always"
       id="linearGradient9252"><stop
         style="stop-color:#c16f35;stop-opacity:1;"
         offset="0"
         id="stop9248" /><stop
         style="stop-color:#c16f35;stop-opacity:0;"
         offset="1"
         id="stop9250" /></linearGradient><linearGradient
       inkscape:collect="always"
       id="linearGradient8508"><stop
         style="stop-color:#c16f35;stop-opacity:1;"
         offset="0"
         id="stop8504" /><stop
         style="stop-color:#c16f35;stop-opacity:0;"
         offset="1"
         id="stop8506" /></linearGradient><inkscape:path-effect
       effect="taper_stroke"
       id="path-effect40917"
       is_visible="true"
       lpeversion="1"
       stroke_width="1"
       attach_start="0.7714769"
       end_offset="0"
       start_smoothing="0.5"
       end_smoothing="0.5"
       jointype="extrapolated"
       start_shape="center"
       end_shape="center"
       miter_limit="100" /><inkscape:path-effect
       effect="fill_between_many"
       id="path-effect38514"
       is_visible="true"
       lpeversion="1.2"
       linkedpaths="#path25811,0,1|#path25813,0,1"
       method="bsplinespiro"
       join="true"
       close="true"
       autoreverse="true" /><inkscape:path-effect
       effect="fill_between_many"
       id="path-effect38472"
       is_visible="true"
       lpeversion="1.2"
       linkedpaths="#path25809,0,1|#path25811,0,1"
       method="bsplinespiro"
       join="true"
       close="true"
       autoreverse="true" /><inkscape:path-effect
       effect="fill_between_many"
       id="path-effect38430"
       is_visible="true"
       lpeversion="1.2"
       linkedpaths="#path25805,0,1|#path25809,0,1"
       method="bsplinespiro"
       join="true"
       close="true"
       autoreverse="true" /><inkscape:path-effect
       effect="fill_between_many"
       id="path-effect37569"
       is_visible="true"
       lpeversion="1.2"
       linkedpaths="#path23499,0,1|#path36822,0,1"
       method="bsplinespiro"
       join="true"
       close="true"
       autoreverse="true" /><inkscape:path-effect
       effect="fill_between_many"
       id="path-effect37527"
       is_visible="true"
       lpeversion="1.2"
       linkedpaths="#path23495,0,1|#path23497,0,1"
       method="bsplinespiro"
       join="true"
       close="true"
       autoreverse="true" /><inkscape:path-effect
       effect="fill_between_many"
       id="path-effect37485"
       is_visible="true"
       lpeversion="1.2"
       linkedpaths="#path23493,0,1|#path23495,0,1"
       method="bsplinespiro"
       join="true"
       close="true"
       autoreverse="true" /><inkscape:path-effect
       effect="fill_between_many"
       id="path-effect37443"
       is_visible="true"
       lpeversion="1.2"
       linkedpaths="#path23491,0,1|#path23493,0,1"
       method="bsplinespiro"
       join="true"
       close="true"
       autoreverse="true" /><inkscape:path-effect
       effect="fill_between_many"
       id="path-effect37401"
       is_visible="true"
       lpeversion="1.2"
       linkedpaths="#path23491,0,1|#path23501,0,1"
       method="bsplinespiro"
       join="true"
       close="true"
       autoreverse="true" /><inkscape:path-effect
       effect="fill_between_many"
       id="path-effect37177"
       is_visible="true"
       lpeversion="1.2"
       linkedpaths="#path23523,0,1|#path36656,0,1"
       method="bsplinespiro"
       join="true"
       close="true"
       autoreverse="true" /><inkscape:path-effect
       effect="fill_between_many"
       id="path-effect37120"
       is_visible="true"
       lpeversion="1.2"
       linkedpaths="#path23521,0,1|#path23523,0,1"
       method="bsplinespiro"
       join="true"
       close="true"
       autoreverse="true" /><inkscape:path-effect
       effect="fill_between_many"
       id="path-effect37078"
       is_visible="true"
       lpeversion="1.2"
       linkedpaths="#path23517,0,1|#path23519,0,1"
       method="bsplinespiro"
       join="true"
       close="true"
       autoreverse="true" /><inkscape:path-effect
       effect="fill_between_many"
       id="path-effect37036"
       is_visible="true"
       lpeversion="1.2"
       linkedpaths="#path23515,0,1|#path23517,0,1"
       method="bsplinespiro"
       join="true"
       close="true"
       autoreverse="true" /><inkscape:path-effect
       effect="fill_between_many"
       id="path-effect36994"
       is_visible="true"
       lpeversion="1.2"
       linkedpaths="#path23513,0,1|#path23515,0,1"
       method="bsplinespiro"
       join="true"
       close="true"
       autoreverse="true" /><inkscape:path-effect
       effect="fill_between_many"
       id="path-effect36952"
       is_visible="true"
       lpeversion="1.2"
       linkedpaths="#path23511,0,1|#path23513,0,1"
       method="bsplinespiro"
       join="true"
       close="true"
       autoreverse="true" /><inkscape:path-effect
       effect="taper_stroke"
       id="path-effect12504"
       is_visible="true"
       lpeversion="1"
       stroke_width="1"
       attach_start="0.7714769"
       end_offset="0"
       start_smoothing="0.5"
       end_smoothing="0.5"
       jointype="extrapolated"
       start_shape="center"
       end_shape="center"
       miter_limit="100" /><linearGradient
       inkscape:collect="always"
       xlink:href="#linearGradient8508"
       id="linearGradient8510"
       x1="223.86055"
       y1="168.51759"
       x2="53.747383"
       y2="165.8316"
       gradientUnits="userSpaceOnUse" /><linearGradient
       inkscape:collect="always"
       xlink:href="#linearGradient9252"
       id="linearGradient9254"
       x1="181.71819"
       y1="156.15764"
       x2="-8.525116"
       y2="155.23433"
       gradientUnits="userSpaceOnUse" /><linearGradient
       inkscape:collect="always"
       xlink:href="#linearGradient32607"
       id="linearGradient32609"
       x1="128.05423"
       y1="103.06836"
       x2="106.98868"
       y2="105.03279"
       gradientUnits="userSpaceOnUse" /><linearGradient
       inkscape:collect="always"
       xlink:href="#linearGradient40600"
       id="linearGradient40602"
       x1="213.93745"
       y1="157.00809"
       x2="48.014637"
       y2="156.91455"
       gradientUnits="userSpaceOnUse" /><linearGradient
       inkscape:collect="always"
       xlink:href="#linearGradient42061"
       id="linearGradient42063"
       x1="75.202127"
       y1="157.52759"
       x2="190.99092"
       y2="157.263"
       gradientUnits="userSpaceOnUse" /><linearGradient
       inkscape:collect="always"
       xlink:href="#linearGradient46599"
       id="linearGradient46601"
       x1="153.47002"
       y1="117.0303"
       x2="56.657524"
       y2="115.24435"
       gradientUnits="userSpaceOnUse" /><linearGradient
       inkscape:collect="always"
       xlink:href="#linearGradient9470"
       id="linearGradient9472"
       x1="159.28687"
       y1="103.02366"
       x2="94.781418"
       y2="108.35567"
       gradientUnits="userSpaceOnUse" /><linearGradient
       inkscape:collect="always"
       xlink:href="#linearGradient11823"
       id="linearGradient11825"
       x1="212.43018"
       y1="113.96822"
       x2="212.53171"
       y2="125.52315"
       gradientUnits="userSpaceOnUse" /><linearGradient
       inkscape:collect="always"
       xlink:href="#linearGradient11831"
       id="linearGradient11833"
       x1="247.48793"
       y1="22.543507"
       x2="247.17975"
       y2="34.336029"
       gradientUnits="userSpaceOnUse" /><linearGradient
       inkscape:collect="always"
       xlink:href="#linearGradient11839"
       id="linearGradient11841"
       x1="238.68208"
       y1="-93.993126"
       x2="238.89218"
       y2="-82.227165"
       gradientUnits="userSpaceOnUse" /></defs><g
     inkscape:groupmode="layer"
     id="layer3"
     inkscape:label="Emotion 4"
     style="display:inline"><g
       inkscape:groupmode="layer"
       id="layer4"
       inkscape:label="Color"
       style="display:inline"><g
         inkscape:groupmode="layer"
         id="layer7"
         inkscape:label="Indicator"
         style="display:inline"><rect
           style="opacity:1;fill:url(#linearGradient11825);fill-opacity:1;stroke:none;stroke-width:1.00012;stroke-linecap:round;stroke-linejoin:miter;stroke-dasharray:none;stroke-opacity:1"
           id="rect44184"
           width="2.0144913"
           height="8.5615873"
           x="211.33376"
           y="113.78627"
           ry="0.66375798"
           inkscape:label="3"
           transform="rotate(6.3565907)" /><rect
           style="opacity:1;fill:url(#linearGradient11833);fill-opacity:1;stroke:none;stroke-width:1.00012;stroke-linecap:round;stroke-linejoin:miter;stroke-dasharray:none;stroke-opacity:1"
           id="rect44184-3"
           width="2.0144913"
           height="8.5615873"
           x="246.41383"
           y="22.376242"
           ry="0.66375798"
           inkscape:label="2"
           transform="rotate(28.805939)" /><rect
           style="opacity:1;fill:url(#linearGradient11841);fill-opacity:1;stroke:none;stroke-width:1.00012;stroke-linecap:round;stroke-linejoin:miter;stroke-dasharray:none;stroke-opacity:1"
           id="rect44184-9"
           width="2.0144913"
           height="8.5615873"
           x="237.65686"
           y="-94.159889"
           ry="0.66375798"
           inkscape:label="1"
           transform="rotate(55.672641)" /></g><g
         id="g40873"
         inkscape:label="Tail"
         style="display:inline"
         sodipodi:insensitive="true"><path
           style="opacity:1;fill:#b34417;fill-opacity:1;stroke:none;stroke-width:1;stroke-linecap:round;stroke-linejoin:round;stroke-opacity:1"
           d="m 82.947786,143.2705 c -7.63612,1.08225 -13.82432,5.09734 -15.754874,6.94395 -1.930553,1.84662 -9.270323,12.3904 -9.857883,16.58725 -0.58756,4.19686 -1.196446,14.0005 5.951098,15.18419 8.677823,1.43712 30.666882,1.3718 39.110793,0.36877 5.11778,-0.60793 0.82043,-35.55715 -2.994686,-36.1513 -6.400283,-1.24709 -8.818329,-4.0151 -16.454448,-2.93286 z"
           id="path40871"
           sodipodi:nodetypes="zsssscz"
           inkscape:label="base tail" /><path
           id="path4818"
           style="display:inline;fill:url(#linearGradient9254);fill-opacity:1;stroke-width:1.00012;stroke-linecap:round"
           d="m 82.043053,144.93585 c -6.549152,1.46421 -9.763778,3.32736 -11.955342,6.06682 -2.350239,2.93779 -5.707803,9.31712 -4.280876,11.33161 1.426932,2.01448 3.105313,3.60938 4.448307,3.69331 1.100154,0.0687 7.212355,-0.2568 11.417391,-1.16117 -1.727898,-6.2422 -1.748489,-13.36789 0.37052,-19.93057 z"
           inkscape:label="tail light" /></g><g
         id="g40913"
         inkscape:label="Body"
         style="display:inline"><path
           id="path40909"
           style="display:inline;opacity:1;fill:#b34417;fill-opacity:1;stroke:none;stroke-width:1;stroke-linecap:round;stroke-linejoin:round;stroke-opacity:1"
           inkscape:label="red"
           d="m 172.88867,129.84789 c -2.07723,0.0277 -9.80081,5.77255 -15.72307,11.29233 l -2.04949,4.66121 c -0.29138,0.16509 -0.88855,0.50332 -1.25987,0.71366 -0.56278,-0.28925 -1.0082,-0.49665 -1.2609,-0.56741 -3.86383,1.82088 -8.15135,4.00181 -11.73107,7.91838 -6.01418,3.40009 -12.22673,6.90916 -16.57987,9.35343 -11.09891,6.23202 -31.991227,6.8253 -39.232228,5.10408 4.273377,12.87949 10.208817,21.01089 15.194418,26.11521 10.20862,3.08632 20.65474,6.29151 41.13134,5.81669 20.47659,-0.47482 39.8253,-3.91742 46.59147,-5.81669 0.92551,-1.22089 1.76045,-2.48128 2.51716,-3.75481 2.11786,-0.16143 4.11414,-0.31583 6.40323,-0.49661 0.55033,0.64353 1.07139,1.02979 1.70377,1.1653 1.66187,0.35611 13.4137,-0.53417 17.92449,-2.43344 -0.0158,-0.21412 -0.0271,-0.34922 -0.0424,-0.55294 1.58729,-0.20874 2.69998,-0.40376 3.12849,-0.57516 2.73022,-4.15468 5.10443,-11.63261 4.15479,-15.07505 -2.25765,-0.45153 -5.70714,-0.83189 -9.51622,-1.14412 -1.77659,-5.60541 -4.76559,-12.22001 -7.05331,-15.01458 -3.16012,-3.86027 -6.57795,-7.04861 -8.65529,-7.40472 -1.81613,-0.31134 -6.94421,-0.71229 -16.81137,7.75818 0.43552,-2.82603 0.67853,-5.37312 0.78599,-6.68951 4.68885,-1.36511 10.2087,-5.81644 8.19072,-7.2409 -1.5802,-1.11543 -5.74406,-3.46824 -10.2123,-4.18011 1.45245,-0.59177 3.04679,-1.56073 4.27726,-3.06131 -1.26584,-1.04972 -3.51142,-2.42054 -5.826,-3.58634 -2.13496,-1.07535 -4.32848,-1.97601 -5.86631,-2.28927 -0.055,-0.0112 -0.11644,-0.0164 -0.18345,-0.0155 z" /><path
           id="path473"
           style="display:inline;fill:url(#linearGradient8510);fill-opacity:1;stroke-width:1.00012;stroke-linecap:round"
           inkscape:label="red light"
           d="m 172.88867,129.84789 c -1.76954,0.0236 -7.63615,4.1965 -12.99662,8.84442 l 1.603,5.00796 c 0,0 9.02306,-6.92468 10.65981,-7.88996 7.54798,1.53259 10.05887,1.56027 12.06748,0.53175 0.18677,-0.19107 0.36841,-0.39125 0.54209,-0.60306 -1.26584,-1.04972 -3.51142,-2.42055 -5.826,-3.58634 -2.13496,-1.07535 -4.32848,-1.97601 -5.86631,-2.28927 -0.055,-0.0112 -0.11644,-0.0164 -0.18345,-0.0155 z m 4.93665,8.74468 c -0.35913,0.004 -0.71721,0.0214 -1.07332,0.0548 -4.47499,3.30963 -8.77198,9.49161 -10.77092,12.361 -1.20135,-1.19924 -2.27635,-2.30486 -3.23184,-3.30161 -2.11095,0.99987 -3.52886,1.70643 -3.622,1.75287 -0.22267,-0.12689 -0.44509,-0.25333 -0.66663,-0.37982 -4.99334,2.60729 -11.94934,9.56517 -12.99766,13.71647 5.37198,6.50513 13.59817,16.57755 21.23643,-3.52536 5.33001,6.79889 8.98085,3.27332 10.15597,0.67127 1.17512,-2.60203 3.65161,-9.7787 3.98736,-11.75122 3.15505,0.2427 8.37468,-1.46401 9.83816,-3.24114 0.54601,-0.82175 0.63264,-1.53595 0.0186,-1.96939 -1.89187,-1.33543 -7.48723,-4.44457 -12.87415,-4.38785 z m 19.06912,10.43606 c -2.58673,0.0486 -7.39446,1.22368 -15.10709,7.82794 l -0.0636,0.10594 c -1.09118,9.06516 -4.28087,17.03898 -13.5139,27.95075 11.91897,-1.25906 14.43751,-1.84648 14.77325,-2.01435 3.94505,-9.1491 9.42969,-20.08191 12.59045,-21.06796 2.19827,-0.68579 4.80527,1.56038 6.37894,6.63112 1.07002,3.44779 3.7162,15.58826 5.18314,22.44152 3.52738,-0.42206 7.25715,-1.08957 9.38238,-1.98437 -0.21278,-2.88352 -0.37114,-4.76294 -0.56173,-7.4719 1.98367,0.15301 4.15439,0.25547 6.54534,0.28215 1.19329,-3.39647 1.8298,-6.93805 1.25729,-9.0134 -2.2579,-0.45158 -5.7066,-0.83114 -9.51518,-1.14308 -1.77662,-5.60543 -4.76668,-12.22113 -7.05435,-15.01562 -3.16012,-3.86027 -6.57795,-7.04861 -8.65529,-7.40472 -0.3895,-0.0668 -0.93146,-0.13732 -1.63969,-0.12402 z m -35.22214,1.86397 1.73529,0.93069 c -0.53312,-0.27537 -1.1168,-0.58938 -1.73529,-0.93069 z m -29.38735,21.84983 c -1.76268,1.76266 -6.46298,5.20434 -13.59762,8.7297 3.52534,3.60927 12.25448,7.30261 34.24597,6.04355 -7.38645,-1.34297 -16.03183,-9.31735 -20.64835,-14.77325 z" /><path
           id="path11913"
           style="display:inline;opacity:1;fill:#090d14;fill-opacity:1;stroke:none;stroke-width:1;stroke-linecap:round;stroke-linejoin:round;stroke-opacity:1"
           inkscape:label="dot"
           d="m 133.1159,195.19739 c -8.7138,7.1e-4 -17.43883,0.50965 -25.51678,1.38182 8.31217,2.24533 18.10405,4.03974 33.77881,3.67626 3.67065,-0.0851 7.30127,-0.26844 10.83345,-0.51831 6.0051,-4.03433 -3.51517,-4.03982 -8.97775,-4.30258 -3.34429,-0.16086 -6.72975,-0.23747 -10.11773,-0.23719 z" /><path
           id="path37676"
           style="display:inline;opacity:1;fill:#090d14;fill-opacity:1;stroke:none;stroke-width:1.00012;stroke-linecap:round;stroke-linejoin:miter;stroke-opacity:1"
           d="m 172.88867,129.84789 c -2.07723,0.0277 -9.80083,5.77257 -15.72307,11.29233 l -2.04949,4.66121 c -0.29138,0.16509 -0.88855,0.50332 -1.25987,0.71366 -0.56278,-0.28925 -1.00822,-0.49665 -1.2609,-0.56741 -0.8367,0.3943 -1.69511,0.81111 -2.56006,1.25315 l -0.34829,1.00253 c -0.17806,9.55573 1.51455,22.7732 7.65638,25.58086 4.15465,1.89928 6.94456,-3.20531 9.61543,-9.97148 2.52459,9.19725 6.31498,9.95728 10.2986,6.07766 -1.94698,3.06661 -4.0132,5.7857 -4.0132,5.7857 13.93808,4.39656 19.17638,9.63508 11.5993,19.36367 -0.057,0.0732 -0.1084,0.14329 -0.16279,0.21498 1.29106,-0.29136 2.40308,-0.56738 3.28869,-0.81597 0.92551,-1.22089 1.76045,-2.4813 2.51716,-3.75481 2.11786,-0.16143 4.11414,-0.31583 6.40323,-0.49661 0.55033,0.64351 1.07139,1.02979 1.70377,1.1653 1.66187,0.35611 13.4137,-0.53419 17.92449,-2.43344 -0.0158,-0.21412 -0.0271,-0.34922 -0.0424,-0.55294 1.58729,-0.20874 2.69998,-0.40376 3.12849,-0.57516 2.73022,-4.15468 5.10443,-11.63261 4.15479,-15.07505 -2.25765,-0.45153 -5.70714,-0.83189 -9.51622,-1.14412 -1.77657,-5.60539 -4.76559,-12.22003 -7.05331,-15.01458 -3.16012,-3.86027 -6.57795,-7.04861 -8.65529,-7.40472 -0.34052,-0.0584 -0.79747,-0.11996 -1.38028,-0.12557 -2.52546,-0.0243 -7.41404,1.00151 -15.43109,7.88375 -0.0422,0.30251 -0.0941,0.62281 -0.15038,0.94982 0.063,-0.46251 0.11988,-0.9299 0.16485,-1.40767 0.0552,-0.5861 0.14994,-1.10306 0.27233,-1.56373 0.25943,-1.98317 0.41819,-3.67566 0.49919,-4.66793 4.68885,-1.36511 10.2087,-5.81644 8.19072,-7.2409 -1.5802,-1.11543 -5.74406,-3.46824 -10.2123,-4.18011 1.45245,-0.59177 3.04679,-1.56073 4.27726,-3.06131 -1.26584,-1.04972 -3.51142,-2.42056 -5.826,-3.58634 -2.13496,-1.07535 -4.32848,-1.97601 -5.86631,-2.28927 -0.055,-0.0112 -0.11644,-0.0164 -0.18345,-0.0155 z m 7.29981,33.87958 c -0.37681,1.27808 -0.75271,2.35525 -1.0511,2.9683 -0.35843,0.67548 -0.7623,1.37386 -1.18339,2.06964 0.891,-1.64135 1.63806,-3.30354 2.23449,-5.03794 z"
           inkscape:label="blue" /><path
           id="path10190"
           style="display:inline;fill:url(#linearGradient40602);fill-opacity:1;stroke-width:1.00012;stroke-linecap:round;stroke-linejoin:round"
           inkscape:label="blue light"
           d="m 172.88867,129.84789 c -1.76954,0.0236 -7.63617,4.1965 -12.99662,8.84442 l 1.603,5.00796 c 0,0 9.02308,-6.92468 10.65981,-7.88996 7.54798,1.53259 10.05889,1.56027 12.06748,0.53175 0.18677,-0.19107 0.36841,-0.39125 0.54209,-0.60306 -1.26584,-1.04972 -3.51142,-2.42057 -5.826,-3.58634 -2.13496,-1.07535 -4.32848,-1.97601 -5.86631,-2.28927 -0.055,-0.0112 -0.11644,-0.0164 -0.18345,-0.0155 z m 4.93665,8.74468 c -0.35913,0.004 -0.71721,0.0214 -1.07332,0.0548 -4.47499,3.30963 -8.77198,9.49161 -10.77092,12.361 -1.20135,-1.19924 -2.27635,-2.30486 -3.23184,-3.30161 -2.11095,0.99987 -3.52886,1.70643 -3.622,1.75287 -0.22267,-0.12689 -0.44509,-0.25333 -0.66663,-0.37982 -2.67814,1.3984 -5.91447,4.04998 -8.50749,6.84712 0.49211,5.5433 1.68571,11.11515 3.96048,14.65027 4.04304,1.74636 8.50654,-0.0438 12.78578,-11.30628 5.33001,6.79887 8.98085,3.27332 10.15597,0.67127 1.17512,-2.60201 3.65161,-9.7787 3.98736,-11.75122 3.15503,0.2427 8.37468,-1.46401 9.83816,-3.24114 0.54599,-0.82175 0.63264,-1.53595 0.0186,-1.96939 -1.89187,-1.33543 -7.48725,-4.44457 -12.87415,-4.38785 z m 19.18539,10.43709 c -0.0726,4.1e-4 -0.14689,0.001 -0.22324,0.004 -0.0877,0.003 -0.17861,0.007 -0.2713,0.0124 -0.0879,0.005 -0.17843,0.0123 -0.27079,0.0202 -0.0948,0.008 -0.19191,0.0177 -0.29145,0.0289 -0.0935,0.0106 -0.19012,0.0231 -0.28784,0.0367 -0.15084,0.0211 -0.30196,0.0422 -0.46302,0.0713 -9.1e-4,1.6e-4 -0.002,3.5e-4 -0.003,5.1e-4 -3.4e-4,7e-5 -7e-4,-6e-5 -0.001,0 -0.20701,0.0374 -0.42337,0.0825 -0.6475,0.13488 -0.0127,0.003 -0.025,0.006 -0.0377,0.009 -0.22011,0.0521 -0.44897,0.11219 -0.68574,0.18036 -0.017,0.005 -0.0336,0.009 -0.0507,0.0145 -0.24146,0.0704 -0.49141,0.14981 -0.75034,0.23875 -0.009,0.003 -0.0182,0.006 -0.0274,0.009 -0.25443,0.0879 -0.51863,0.18606 -0.79013,0.29352 -0.0268,0.0106 -0.0536,0.0212 -0.0806,0.032 -0.27223,0.10911 -0.55235,0.22819 -0.84181,0.35864 -0.016,0.007 -0.032,0.0144 -0.0481,0.0217 -0.29576,0.13409 -0.60074,0.27961 -0.91468,0.4377 -0.0182,0.009 -0.0365,0.0187 -0.0548,0.0279 -0.31859,0.16136 -0.64592,0.33509 -0.9834,0.52296 -0.009,0.005 -0.0183,0.0104 -0.0274,0.0155 -0.34544,0.19276 -0.70059,0.39922 -1.06609,0.62167 -0.004,0.003 -0.009,0.006 -0.0134,0.008 -0.37023,0.22555 -0.75094,0.46645 -1.14205,0.7245 -0.39144,0.25827 -0.79344,0.53343 -1.20613,0.82631 -0.008,0.006 -0.0159,0.0115 -0.0238,0.017 -1.24197,0.88257 -2.58037,1.92587 -4.02043,3.15898 l -0.0636,0.10594 c -0.77866,6.46885 -2.62804,12.38245 -6.97735,19.204 3.90255,1.31062 7.04465,2.70538 9.31674,4.27674 3.81739,-8.54609 8.62833,-17.71319 11.51041,-18.6123 2.19827,-0.68579 4.80527,1.56038 6.37894,6.63112 1.07002,3.44777 3.71622,15.58828 5.18314,22.44152 0.4231,-0.0506 0.84906,-0.10512 1.27486,-0.16278 0.0438,-0.006 0.0875,-0.0121 0.13126,-0.0181 0.397,-0.0544 0.79345,-0.1121 1.18701,-0.1726 0.0613,-0.009 0.12183,-0.0194 0.18293,-0.0289 0.36546,-0.0572 0.72817,-0.1164 1.08572,-0.1788 0.12023,-0.021 0.23755,-0.0435 0.35657,-0.0651 0.33714,-0.0611 0.67328,-0.12286 0.99839,-0.18862 0.39486,-0.0799 0.77845,-0.16342 1.1498,-0.25011 0.0325,-0.008 0.0644,-0.0151 0.0966,-0.0227 0.3525,-0.0834 0.6931,-0.16986 1.01802,-0.25941 0.03,-0.008 0.0586,-0.017 0.0884,-0.0253 0.3225,-0.0902 0.63103,-0.18321 0.91984,-0.27956 0.10953,-0.0366 0.21419,-0.0737 0.31833,-0.11111 0.0472,-0.017 0.0971,-0.0335 0.14314,-0.0506 0.1501,-0.0559 0.29431,-0.11277 0.4315,-0.17053 -0.0158,-0.21412 -0.0271,-0.34922 -0.0424,-0.55294 h 5.2e-4 c -0.19039,-2.54737 -0.34314,-4.40702 -0.51987,-6.91896 1.98367,0.15301 4.15439,0.25547 6.54534,0.28215 0.29596,-0.84239 0.55712,-1.69338 0.77463,-2.52904 0.003,-0.0133 0.007,-0.0265 0.0103,-0.0398 0.16165,-0.62474 0.29885,-1.24113 0.40669,-1.83762 0.0336,-0.18579 0.0641,-0.36913 0.092,-0.55087 0.006,-0.0395 0.0113,-0.0785 0.0171,-0.11782 0.0217,-0.14747 0.0413,-0.29339 0.0589,-0.4377 0.005,-0.0418 0.0102,-0.0836 0.015,-0.12506 0.0163,-0.14215 0.0302,-0.28201 0.0424,-0.42064 0.003,-0.0395 0.008,-0.0796 0.0109,-0.11886 0.0128,-0.15987 0.0225,-0.31731 0.0295,-0.4718 5.6e-4,-0.0126 0.002,-0.0257 0.003,-0.0382 7e-5,-0.002 -7e-5,-0.003 0,-0.005 0.007,-0.16388 0.01,-0.32399 0.01,-0.48111 -1e-5,-0.0455 -0.001,-0.0894 -0.002,-0.13436 -0.001,-0.11098 -0.004,-0.22047 -0.009,-0.32763 -0.003,-0.0533 -0.006,-0.10532 -0.01,-0.15761 -0.007,-0.0991 -0.0148,-0.19657 -0.0248,-0.29197 -0.005,-0.047 -0.01,-0.094 -0.0155,-0.14004 -0.0123,-0.0986 -0.0273,-0.19422 -0.0434,-0.28836 -0.007,-0.0414 -0.0133,-0.084 -0.0212,-0.12454 -0.0251,-0.12943 -0.0532,-0.25522 -0.0863,-0.37517 -0.28221,-0.0564 -0.5829,-0.11166 -0.90072,-0.16588 -0.63565,-0.10841 -1.33954,-0.21258 -2.09806,-0.31213 -1.89635,-0.24886 -4.13604,-0.47011 -6.5164,-0.66507 -1.2e-4,-3.6e-4 -4.1e-4,-6.8e-4 -5.2e-4,-0.001 h -5.2e-4 c -0.55511,-1.75147 -1.22815,-3.60154 -1.96163,-5.40277 l -5.2e-4,-5.1e-4 c -0.14663,-0.36008 -0.29553,-0.71833 -0.44648,-1.07332 l -5.2e-4,-5.2e-4 c -0.15096,-0.35499 -0.3035,-0.70716 -0.45785,-1.05472 l -5.2e-4,-5.1e-4 c -0.15435,-0.34755 -0.31034,-0.69061 -0.46716,-1.02836 l -5.1e-4,-5.2e-4 c -0.0824,-0.17737 -0.16521,-0.34879 -0.24805,-0.52297 -0.075,-0.15767 -0.14951,-0.31856 -0.22479,-0.47335 -0.31681,-0.65145 -0.63611,-1.27631 -0.95343,-1.865 v -5.2e-4 c -0.63479,-1.17762 -1.26321,-2.21081 -1.85519,-3.02411 -0.148,-0.20332 -0.29368,-0.39275 -0.43666,-0.5674 -0.39502,-0.48254 -0.7943,-0.95449 -1.19424,-1.4118 -2.19971,-2.51524 -4.42677,-4.5854 -6.1619,-5.50819 -0.15774,-0.0839 -0.31122,-0.15833 -0.46044,-0.22273 -0.14922,-0.0644 -0.29417,-0.11892 -0.43408,-0.16278 -0.13992,-0.0439 -0.27479,-0.077 -0.40463,-0.0992 -0.0889,-0.0152 -0.18803,-0.0309 -0.293,-0.0455 -0.0363,-0.005 -0.078,-0.009 -0.11627,-0.014 -0.0798,-0.01 -0.1613,-0.0196 -0.2496,-0.0279 -0.0417,-0.004 -0.0871,-0.007 -0.13074,-0.0103 -0.0856,-0.007 -0.17464,-0.0127 -0.26769,-0.0171 -0.0574,-0.003 -0.11748,-0.005 -0.17776,-0.006 -0.0925,-0.002 -0.18907,-0.003 -0.28836,-0.002 z" /><path
           id="path41761"
           style="display:inline;opacity:1;fill:#d2ced4;fill-opacity:1;stroke:none;stroke-width:1;stroke-linecap:round;stroke-linejoin:round;stroke-opacity:1"
           inkscape:label="scratch"
           d="m 196.89444,149.02863 c -1.39946,0.0263 -3.45041,0.38391 -6.25802,1.75028 l -0.0377,0.0636 c -1.19065,1.74816 1.3786,3.98788 5.08651,4.60179 4.73315,0.78366 9.03985,-1.77019 7.08122,-3.61012 -0.002,-0.006 -0.004,-0.0125 -0.007,-0.0186 -1.6276,-1.47285 -3.11792,-2.47301 -4.22558,-2.66289 -0.3895,-0.0668 -0.93146,-0.13732 -1.63969,-0.12402 z"
           sodipodi:nodetypes="cccsccscc" /></g><g
         id="g43391"
         inkscape:label="Head"
         style="display:inline"><path
           id="path43371"
           style="display:inline;opacity:1;fill:#b34417;fill-opacity:1;stroke:none;stroke-width:1;stroke-linecap:round;stroke-linejoin:round;stroke-opacity:1"
           inkscape:label="red"
           d="m 125.17582,94.740986 c -0.43199,0.02244 -0.8484,0.05756 -1.24799,0.104386 -5.11433,0.59934 -10.65851,3.544669 -14.74276,6.503478 -0.3713,0.26898 -0.73068,0.53818 -1.07642,0.80564 -0.34575,0.26745 -0.67794,0.5334 -0.99529,0.79581 -0.31736,0.26242 -0.61976,0.52127 -0.90589,0.77515 -0.57226,0.50775 -1.07916,0.9949 -1.50947,1.44746 -0.21288,0.22389 -0.4362,0.47086 -0.66456,0.72915 -0.006,0.006 -0.0115,0.0128 -0.017,0.0191 -2.80834,3.1816 -6.715517,8.91646 -10.195245,16.41709 l 0.05736,-0.0501 c -0.862764,1.84235 -1.69658,3.7796 -2.475818,5.79448 l 14.422373,11.93002 c 2.07733,0.47482 43.94978,-0.19069 43.94978,-0.19069 l 8.41654,-10.92026 -3.45922,-9.60303 c 1.6359,-0.90142 2.01345,-2.51675 1.79834,-4.11654 -0.0239,-0.17776 -0.0554,-0.35538 -0.093,-0.53176 -0.0376,-0.17637 -0.0812,-0.35151 -0.13074,-0.52451 -0.2476,-0.86501 -0.63272,-1.67519 -1.04077,-2.3058 -8.40218,-12.180697 -19.38654,-16.490023 -27.19679,-17.044958 -0.41122,-0.701701 -1.05451,-1.636948 -1.85459,-1.658834 -0.59874,-0.01638 -0.94712,1.14215 -1.03877,1.624724 z"
           sodipodi:nodetypes="csssssscccccccccsssccscc" /><path
           style="display:inline;opacity:1;fill:#d2ced4;fill-opacity:1;stroke:none;stroke-width:1;stroke-linecap:round;stroke-linejoin:round;stroke-opacity:1"
           d="m 151.12881,117.80577 c 2.64402,-0.12591 4.07095,-1.38496 3.14764,-3.10567 -0.9233,-1.72072 -2.27905,-3.87631 -4.52402,-4.43253 -1.96953,-0.48798 -1.11962,2.25227 -0.63127,3.243 -2.09843,0.50363 -4.18333,2.23962 -4.26726,3.20489 2.97977,0.8046 5.43554,0.9644 6.27491,1.09031 z"
           id="path43377"
           sodipodi:nodetypes="cssccc"
           inkscape:label="eyebrow r" /><path
           style="display:inline;opacity:1;fill:#b18f74;fill-opacity:1;stroke:none;stroke-width:1;stroke-linecap:round;stroke-dasharray:none;stroke-opacity:1"
           d="m 146.69128,101.93073 c 4.61817,4.50886 7.68037,9.69466 7.68037,9.69466 0,0 4.73956,3.87578 11.69038,9.44613 -8.30445,-25.428678 -19.97191,-24.122244 -29.51182,-30.320008 -1.78594,-6.022595 -0.25295,-7.678787 1.07771,-8.271553 1.40844,-0.627416 2.94584,0.293928 3.95407,2.431346 0.66899,1.418227 3.20502,1.041853 2.63449,-0.887294 -0.83249,-2.814926 -4.84951,-5.305976 -7.77116,-3.465605 -3.02739,1.906982 -3.34133,6.257026 -2.13466,10.430291 -2.74132,1.33759 -5.0519,1.859011 -10.08822,3.719409 -3.16544,2.608754 -7.82458,8.278204 -7.82458,8.278204 l 15.81631,-2.44739 4.60533,-1.164376 3.71432,6.552326 c 0,0 4.7445,9.52088 7.53593,16.74819 3.30729,-7.40833 3.67871,-11.41915 3.67871,-11.41915 0,0 -2.09826,-5.27474 -5.05718,-9.32518 z"
           id="path1064"
           sodipodi:nodetypes="ccccssssccccccccc"
           inkscape:label="leaf" /><path
           id="path9462"
           style="display:inline;opacity:1;fill:url(#linearGradient9472);fill-opacity:1;stroke:none;stroke-width:1;stroke-linecap:round;stroke-dasharray:none;stroke-opacity:1"
           inkscape:label="leaf light"
           d="m 132.28962,96.956475 c -2.20879,0.285605 -8.2558,2.643455 -11.26238,5.313765 l 11.14014,-2.19888 4.61814,-0.868216 c -0.26053,-1.891014 -3.04345,-2.229742 -4.4959,-2.246669 z m 13.80068,3.523695 c -3.58725,0.017 -5.34311,0.50507 -4.80073,6.98717 1.43941,2.95999 4.66022,9.71968 6.77994,15.20786 3.30729,-7.40832 3.67885,-11.41946 3.67885,-11.41946 0,0 -2.09814,-5.27458 -5.05706,-9.32501 4.61817,4.50885 7.68015,9.6945 7.68015,9.6945 0,0 4.73995,3.8761 11.69076,9.44645 -3.43896,-10.5303 -7.4552,-16.47365 -11.65768,-20.26595 -3.95882,-0.850837 -6.2197,-0.33548 -8.31423,-0.32556 z"
           sodipodi:nodetypes="cccccscccccccs" /><path
           style="display:inline;opacity:1;fill:#d2ced4;fill-opacity:1;stroke:none;stroke-width:1.00012;stroke-linecap:round;stroke-linejoin:miter;stroke-dasharray:none;stroke-opacity:1"
           d="m 124.68034,122.00514 c 3.69324,-0.83937 8.73774,-2.85638 9.78695,-3.36 1.04921,-0.50362 4.19686,-6.21135 4.19686,-6.21135 l 0.58756,-5.79166 -11.24758,-8.771431 -3.14764,3.987011 -2.39221,12.21286 z"
           id="path43385"
           inkscape:label="ear inner r"
           sodipodi:nodetypes="cscccccc" /><path
           style="display:inline;opacity:1;fill:#ffffff;fill-opacity:1;stroke:none;stroke-width:1;stroke-linecap:round;stroke-dasharray:none;stroke-opacity:1"
           d="m 123.78254,116.13529 c -0.56126,-3.18051 0.88264,-6.27842 2.99342,-6.73519 3.2876,-0.71143 5.31794,3.75815 4.91108,5.65943 -0.33073,1.54549 -0.73918,4.58688 -4.65383,5.12155 -3.44431,0.47044 -3.25067,-4.04579 -3.25067,-4.04579 z"
           id="path12455"
           sodipodi:nodetypes="csssc"
           inkscape:label="eear inner r  light" /><path
           style="display:inline;opacity:1;fill:#b34417;fill-opacity:1;stroke:none;stroke-width:1;stroke-linecap:round;stroke-linejoin:round;stroke-opacity:1"
           d="m 120.19798,133.9217 c 2.35024,-0.62953 2.18236,-0.62953 2.81189,-1.76268 0.62953,-1.13315 3.35749,-7.89009 3.35749,-9.65277 0,-1.76268 -2.09843,-6.96678 -2.18237,-9.14915 -0.0839,-2.18236 1.93056,-10.15639 3.48339,-11.49938 1.55284,-1.343 4.32277,2.47614 9.82065,7.05071 0.56342,0.4688 -0.37772,6.33725 -5.53985,10.82789 2.81189,0.20984 4.11488,-0.88623 4.99426,-1.97252 1.42693,-1.76268 6.75693,-10.74395 3.10567,-12.92632 -3.65127,-2.18236 -10.47407,-7.872017 -11.58332,-8.981271 -0.7729,-1.906047 -2.11447,-3.915487 -2.76993,-2.560083 -0.75644,1.564214 -0.54941,3.931989 -0.9233,5.330007 -0.96529,3.609297 -5.24608,10.492137 -3.3575,21.613807 1.04922,5.7497 0.50363,8.6875 -1.21708,13.68176 z"
           id="path43379"
           sodipodi:nodetypes="csscsscsscsscc"
           inkscape:label="ear 1 r" /><path
           id="path4824"
           style="display:inline;fill:url(#linearGradient46601);fill-opacity:1;stroke-width:1.00012;stroke-linecap:round"
           inkscape:label="red light"
           d="m 124.47871,94.681041 c 0,0 -6.21137,-0.08384 -13.72371,5.455999 -7.51238,5.53982 -9.4847,8.81341 -9.4847,8.81341 -1.342978,3.06371 -1.457349,4.06894 -0.41961,5.58158 2.52027,3.67356 6.80934,4.783 12.71757,2.33267 1.76268,-4.32276 5.77009,-13.1012 11.50834,-20.803898 0.10246,-0.883854 -0.59789,-1.379761 -0.59789,-1.379761 z M 124.3397,116.4022 c -1.09642,0.0268 -2.6386,5.34592 -2.6386,5.34592 0,0 0.60807,3.50759 0.0935,5.47202 -0.51449,1.96443 -1.63711,6.73551 -1.63711,6.73551 l 2.43241,-0.88884 4.069,-10.2433 -1.68361,-5.56555 c -0.1765,-0.61352 -0.39546,-0.86163 -0.63562,-0.85576 z m 27.06811,3.52019 c 0,0 -2.18281,0.82683 -2.71198,1.28985 1.19063,-0.13229 2.8112,-0.23151 2.8112,-0.23151 z m 1.29139,0.3328 c -0.38802,-0.0151 -1.28198,1.81017 -1.36064,2.12494 -0.0839,0.33575 -6.25336,0.71365 -6.25336,0.71365 l -2.85357,-1.30122 c 0,0 -5.03624,-0.58737 -5.87561,-0.67127 -0.83938,-0.0839 -0.084,0.88139 1.00717,2.14044 l 1.8464,0.7555 3.76566,1.38752 3.97533,2.78879 7.31882,-2.57334 c 0,0 -1.16417,-5.04229 -1.49992,-5.33607 -0.021,-0.0184 -0.0444,-0.0279 -0.0703,-0.0289 z"
           sodipodi:nodetypes="cccccccccccccccccccccsccscccccscc"
           class="UnoptimicedTransforms" /><path
           id="path43383"
           style="display:inline;opacity:1;fill:#121826;fill-opacity:1;stroke:none;stroke-width:1;stroke-linecap:round;stroke-linejoin:round;stroke-opacity:1"
           inkscape:label="blue"
           d="m 121.94501,85.815949 c -0.44568,0.01444 -1.10463,0.641345 -2.16679,2.486154 -4.19686,2.182359 -10.07259,7.721961 -13.68185,15.192357 0,0 5.4317,-4.337293 9.29038,-5.974316 3.8587,-1.63702 6.7772,-2.567634 9.67952,-2.839103 -0.41968,-1.510862 -0.83915,-3.860904 -1.8464,-5.959326 -0.0839,-0.50362 -0.32135,-1.870469 -0.74104,-2.541963 -0.13115,-0.209843 -0.28869,-0.351817 -0.49145,-0.363286 -0.0139,-7.88e-4 -0.028,-9.82e-4 -0.0424,-5.17e-4 z m 2.95331,10.040214 c -5.81612,4.765977 -10.23094,12.095417 -11.30319,15.483297 -5.72787,6.31148 -11.71476,16.45771 -14.381549,25.98187 l 8.897649,6.46317 26.44025,-1.17512 -6.29574,-9.31726 -4.24471,-3.38274 c -0.43502,1.06218 -0.81253,1.91029 -1.00097,2.24948 -0.62953,1.13315 -0.46199,1.13315 -2.81223,1.76268 1.72071,-4.99426 2.2662,-7.93216 1.21698,-13.68185 -1.53602,-9.04549 1.00911,-15.28636 2.53214,-19.24327 0.11658,-0.36319 0.22024,-0.6676 0.30335,-0.88057 0.74833,-1.917644 0.64802,-4.259687 0.64802,-4.259687 z" /><path
           id="path6278"
           style="display:inline;fill:url(#linearGradient32609);fill-opacity:1;stroke-width:1.00012;stroke-linecap:round"
           inkscape:label="blue light"
           d="m 121.92021,87.698522 c -0.28075,0.01301 -0.56285,0.234824 -0.79892,0.687296 -0.50362,0.965276 -4.74254,2.937674 -8.39381,8.477519 7.55435,-2.098427 11.12176,-2.349947 11.91917,-2.266012 0.7974,0.08394 -1.8464,-6.169649 -1.8464,-6.169649 -0.24525,-0.490507 -0.56187,-0.743895 -0.88004,-0.729154 z m 2.97811,8.157641 c -5.81586,4.765757 -10.2307,12.094697 -11.30319,15.482777 -1.77005,1.9507 -3.56474,4.26764 -5.27875,6.81922 1.57577,-0.0772 3.32736,-0.4953 5.25188,-1.29346 0.0998,-0.24483 0.20883,-0.50791 0.32298,-0.78031 0.004,-0.01 0.009,-0.0205 0.0129,-0.0305 0.0137,-0.0326 0.0275,-0.0658 0.0413,-0.0987 0.11402,-0.27093 0.2347,-0.55334 0.36225,-0.84852 0.0109,-0.0252 0.0216,-0.0501 0.0326,-0.0754 0.13092,-0.30231 0.2692,-0.61731 0.41392,-0.94258 0.0298,-0.0669 0.0596,-0.13422 0.0899,-0.20205 0.0238,-0.0531 0.0477,-0.10603 0.0718,-0.15968 0.0581,-0.12931 0.11657,-0.25978 0.17674,-0.39223 0.0311,-0.0684 0.063,-0.13803 0.0946,-0.20722 0.0437,-0.0957 0.0875,-0.19109 0.13229,-0.28835 0.0344,-0.0748 0.0694,-0.15067 0.10439,-0.22635 0.0579,-0.12497 0.11617,-0.24994 0.1757,-0.37723 0.0432,-0.0924 0.0877,-0.18698 0.13178,-0.28061 0.0363,-0.077 0.0716,-0.15268 0.10852,-0.23047 0.0537,-0.1133 0.10888,-0.22823 0.16381,-0.34314 0.0453,-0.0947 0.0898,-0.18842 0.13591,-0.28422 0.094,-0.1951 0.1899,-0.39293 0.28732,-0.59221 0.0208,-0.0425 0.0426,-0.0859 0.0636,-0.12867 0.0798,-0.16268 0.15979,-0.32569 0.24185,-0.49093 0.0418,-0.0842 0.0847,-0.1699 0.12712,-0.25476 0.0605,-0.12115 0.1212,-0.24193 0.18294,-0.36432 0.0443,-0.0877 0.0895,-0.17675 0.13436,-0.2651 1.99785,-3.93357 4.60042,-8.46983 7.72459,-12.701553 0.003,-0.274242 -0.003,-0.443384 -0.003,-0.443384 z" /></g><g
         id="g26150"
         inkscape:label="Scarf"
         style="display:inline"><g
           id="g36600"
           inkscape:label="scarf up"
           style="display:inline"><path
             style="display:inline;opacity:1;fill:#d332ac;fill-opacity:1;stroke:none;stroke-width:1;stroke-linecap:round;stroke-linejoin:round;stroke-opacity:1"
             d="m 84.517986,145.76979 c 0.415467,-7.83453 2.110358,-16.49579 8.249999,-24.21583 8.784175,7.00359 16.262595,13.53237 32.287765,15.01618 16.02518,1.48382 30.26979,-1.36511 33.29677,-1.95863 0.17806,2.90827 0.35611,5.28237 0.59352,6.05396 -5.51978,2.19604 -24.51259,14.06654 -35.61151,14.48201 -11.09892,0.41547 -26.174459,2.07734 -38.816544,-9.37769 z"
             id="path26144"
             sodipodi:nodetypes="ccsccsc"
             inkscape:label="purple base" /><path
             id="rect26935-0-0"
             clip-path="none"
             style="display:inline;fill:#0de552;fill-opacity:1;stroke:none;stroke-width:1.00012;stroke-linecap:round;stroke-linejoin:miter;stroke-dasharray:none;stroke-opacity:1"
             class="UnoptimicedTransforms"
             d="m 244.29505,166.06825 c -0.87259,0.1711 -2.70118,0.5312 -5.21208,0.91933 0.55848,2.36591 1.21748,4.80681 1.97662,6.96753 1.57831,-0.8104 2.90494,-1.46544 3.82871,-1.83296 -0.23742,-0.77159 -0.41519,-3.14563 -0.59325,-6.0539 z"
             transform="translate(-85.942444,-31.456833)"
             inkscape:label="green" /><path
             id="rect26935-0-5"
             clip-path="none"
             style="display:inline;fill:#00c2f8;fill-opacity:1;stroke:none;stroke-width:1.00012;stroke-linecap:round;stroke-linejoin:miter;stroke-dasharray:none;stroke-opacity:1"
             class="UnoptimicedTransforms"
             d="m 239.08297,166.98758 c -2.23655,0.34571 -5.01413,0.71206 -8.21139,0.99322 1.08464,3.90432 2.32454,7.0398 3.52072,9.43921 2.51114,-1.29252 4.77848,-2.49507 6.66729,-3.4649 -0.75914,-2.16072 -1.41814,-4.60162 -1.97662,-6.96753 z"
             transform="translate(-85.942444,-31.456833)"
             inkscape:label="blue" /><path
             id="rect26935-0"
             clip-path="none"
             style="display:inline;fill:#f32848;fill-opacity:1;stroke:none;stroke-width:1.00012;stroke-linecap:round;stroke-linejoin:miter;stroke-dasharray:none;stroke-opacity:1"
             class="UnoptimicedTransforms"
             d="m 211.60351,168.07795 c 0.66026,4.85422 2.02019,12.5724 3.18792,17.61908 3.7809,-0.9891 7.9535,-2.67352 11.99668,-4.53926 -1.59998,-3.08752 -3.09082,-6.9486 -4.4943,-12.72429 -3.38302,0.0559 -6.98536,-0.0366 -10.6903,-0.35553 z"
             transform="translate(-85.942444,-31.456833)"
             inkscape:label="red" /><path
             id="rect26935"
             clip-path="none"
             style="display:inline;opacity:1;fill:#ffa10a;fill-opacity:1;stroke:none;stroke-width:1.00012;stroke-linecap:round;stroke-linejoin:miter;stroke-dasharray:none;stroke-opacity:1"
             class="UnoptimicedTransforms"
             d="m 200.64449,166.10184 c 0.42638,8.19026 0.77292,15.29004 1.27382,20.79253 2.58504,-0.0653 5.05827,-0.20379 7.35872,-0.2899 1.68116,-0.0629 3.54527,-0.39231 5.5144,-0.90744 -1.16773,-5.04668 -2.52766,-12.76486 -3.18792,-17.61908 -0.20191,-0.0174 -0.40264,-0.0324 -0.60513,-0.0512 -3.91422,-0.36243 -7.31591,-1.02715 -10.35389,-1.92495 z"
             transform="translate(-85.942444,-31.456833)"
             inkscape:label="yellow" /><path
             id="rect26935-0-0-94"
             clip-path="none"
             style="display:inline;fill:#0de552;fill-opacity:1;stroke:none;stroke-width:1.00012;stroke-linecap:round;stroke-linejoin:miter;stroke-dasharray:none;stroke-opacity:1"
             class="UnoptimicedTransforms"
             d="m 189.79502,161.22876 c -1.04494,6.72101 -1.73761,15.38407 -1.81333,24.71632 4.78819,0.95601 9.52714,1.0607 13.93662,0.94929 -0.5009,-5.50249 -0.84744,-12.60227 -1.27382,-20.79253 -4.18668,-1.23726 -7.67847,-2.91985 -10.84947,-4.87308 z"
             transform="translate(-85.942444,-31.456833)"
             inkscape:label="green" /><path
             id="rect26935-0-5-48"
             clip-path="none"
             style="display:inline;fill:#00c2f8;fill-opacity:1;stroke:none;stroke-width:1.00012;stroke-linecap:round;stroke-linejoin:miter;stroke-dasharray:none;stroke-opacity:1"
             class="UnoptimicedTransforms"
             d="m 181.91746,155.57019 c -3.28662,7.0974 -6.02341,14.99866 -6.73705,25.28527 4.16923,2.68771 8.50415,4.23165 12.80128,5.08962 0.0757,-9.33225 0.76839,-17.99531 1.81333,-24.71632 -2.78714,-1.7168 -5.32962,-3.64167 -7.87756,-5.65857 z"
             transform="translate(-85.942444,-31.456833)"
             inkscape:label="blue" /></g><g
           id="g37596"
           inkscape:label="scarf down"
           style="display:inline"><path
             style="display:inline;opacity:1;fill:#f32848;fill-opacity:1;stroke:none;stroke-width:1;stroke-linecap:round;stroke-linejoin:round;stroke-opacity:1"
             d="m 83.601387,141.01439 c 9.149146,5.12016 16.597303,8.88191 27.857153,9.29963 6.09163,0.22599 15.4905,0.0386 20.68207,-2.30826 10.62226,-4.80185 20.54374,-8.3493 27.66605,-9.41764 0.87464,2.18586 1.70557,4.81178 2.47716,6.59236 -5.57914,1.83993 -11.82519,3.67563 -19.3036,11.39146 -7.47842,7.71583 -15.72842,14.89748 -23.14749,17.27158 -7.41906,2.3741 -18.57734,5.99461 -36.264387,-3.85791 -3.979304,-8.36723 -4.44879,-19.62354 0.03304,-28.97122 z"
             id="path37645"
             sodipodi:nodetypes="cssccssccc"
             inkscape:label="base red" /><path
             id="rect26935-0-6"
             clip-path="none"
             style="display:inline;fill:#d332ac;fill-opacity:1;stroke:none;stroke-width:1.00012;stroke-linecap:round;stroke-linejoin:miter;stroke-dasharray:none;stroke-opacity:1"
             class="UnoptimicedTransforms"
             d="m 245.74923,170.04475 c -3.36072,0.50411 -7.35002,1.56591 -11.73676,3.0453 2.72561,2.77292 4.79402,4.87883 6.49935,6.43526 2.72905,-1.28547 5.28481,-2.08699 7.71426,-2.88819 -0.77159,-1.78058 -1.60222,-4.40651 -2.47685,-6.59237 z"
             transform="translate(-85.942444,-31.456833)"
             inkscape:label="purple" /><path
             id="rect26935-6"
             clip-path="none"
             style="display:inline;fill:#ffa10a;fill-opacity:1;stroke:none;stroke-width:1.00012;stroke-linecap:round;stroke-linejoin:miter;stroke-dasharray:none;stroke-opacity:1"
             class="UnoptimicedTransforms"
             d="m 223.9149,176.92495 c -1.91099,0.79743 -3.85891,1.64603 -5.83169,2.53783 -1.67632,0.75779 -3.79405,1.28789 -6.09471,1.65417 2.07598,5.76877 4.51747,10.74986 7.57679,15.73082 3.17458,-2.66529 6.3296,-5.69501 9.35757,-8.8191 0.73539,-0.75873 1.45832,-1.45882 2.17041,-2.10943 -2.38218,-2.66157 -4.93286,-5.86675 -7.17837,-8.99429 z"
             transform="translate(-85.942444,-31.456833)"
             inkscape:label="yellow" /><path
             id="rect26935-0-5-4"
             clip-path="none"
             style="display:inline;fill:#00c2f8;fill-opacity:1;stroke:none;stroke-width:1.00012;stroke-linecap:round;stroke-linejoin:miter;stroke-dasharray:none;stroke-opacity:1"
             class="UnoptimicedTransforms"
             d="m 184.5695,179.53875 c 0.5863,8.73096 2.65558,20.44269 5.89886,28.39568 6.42052,0.22141 11.38603,-1.37938 15.30656,-2.63395 0.0364,-0.0116 0.0731,-0.0253 0.10956,-0.0372 -3.0758,-6.04676 -5.06564,-12.74687 -6.76445,-23.44457 -0.59343,-0.0123 -1.17353,-0.0278 -1.71927,-0.0481 -4.83469,-0.17935 -8.96566,-0.9767 -12.83126,-2.2319 z"
             transform="translate(-85.942444,-31.456833)"
             inkscape:label="blue" /><path
             id="rect26935-0-0-1"
             clip-path="none"
             style="display:inline;fill:#0de552;fill-opacity:1;stroke:none;stroke-width:1.00012;stroke-linecap:round;stroke-linejoin:miter;stroke-dasharray:none;stroke-opacity:1"
             class="UnoptimicedTransforms"
             d="m 211.9885,181.11695 c -4.18613,0.66644 -8.97682,0.78278 -12.86847,0.70176 1.69881,10.6977 3.68865,17.39781 6.76445,23.44457 4.38352,-1.42897 9.05334,-4.53041 13.68081,-8.41551 -3.05932,-4.98096 -5.50081,-9.96205 -7.57679,-15.73082 z"
             transform="translate(-85.942444,-31.456833)"
             inkscape:label="green" /><path
             id="rect26935-0-6-1"
             clip-path="none"
             style="display:inline;fill:#d332ac;fill-opacity:1;stroke:none;stroke-width:1.00012;stroke-linecap:round;stroke-linejoin:miter;stroke-dasharray:none;stroke-opacity:1"
             class="UnoptimicedTransforms"
             d="m 172.55886,174.13443 c -0.8275,9.23905 -0.26948,20.67423 2.99362,30.27619 5.70137,2.41623 10.63258,3.3761 14.91588,3.52381 -3.24328,-7.95299 -5.31256,-19.66472 -5.89886,-28.39568 -4.12909,-1.34076 -7.95749,-3.20697 -12.01064,-5.40432 z"
             transform="translate(-85.942444,-31.456833)"
             inkscape:label="purple" /></g><g
           id="g38412"
           inkscape:label="scarf drop"><path
             style="display:inline;opacity:1;fill:#d332ac;fill-opacity:1;stroke:none;stroke-width:1;stroke-linecap:round;stroke-linejoin:round;stroke-opacity:1"
             d="m 97.618887,153.52102 c -4.196855,26.85988 -2.014489,37.10021 -1.259056,40.28983 10.492139,5.2041 14.605059,7.05071 17.626799,8.1419 -10.57608,1.42693 -27.447445,2.85386 -35.253597,1.67874 -3.357486,-4.61654 -3.609298,-8.30978 -3.609298,-8.30978 0.251812,-13.01025 7.386468,-38.52715 13.681755,-47.76022 6.188366,-9.07626 8.813397,5.95953 8.813397,5.95953 z"
             id="path26148"
             inkscape:label="base purple"
             sodipodi:nodetypes="cccccsc" /><path
             id="rect26935-0-5-6"
             clip-path="none"
             style="display:inline;fill:#00c2f8;fill-opacity:1;stroke:none;stroke-width:1.00012;stroke-linecap:round;stroke-linejoin:miter;stroke-dasharray:none;stroke-opacity:1"
             class="UnoptimicedTransforms"
             d="m 163.04885,211.96209 c -1.16702,5.5673 -1.90491,10.79119 -1.98283,14.81667 0,0 0.0354,0.47705 0.22945,1.29243 8.01368,-0.81585 16.7061,-1.2248 23.52518,-1.56063 -0.81418,-0.40094 -1.61232,-0.7935 -2.5182,-1.24282 -0.39995,-1.6887 -1.1993,-5.35594 -1.24075,-12.41733 -5.16698,-0.26705 -12.52294,-0.68153 -18.01285,-0.88832 z"
             transform="translate(-85.942444,-31.456833)"
             inkscape:label="blue" /><path
             id="rect26935-0-0-9"
             clip-path="none"
             style="display:inline;fill:#0de552;fill-opacity:1;stroke:none;stroke-width:1.00012;stroke-linecap:round;stroke-linejoin:miter;stroke-dasharray:none;stroke-opacity:1"
             class="UnoptimicedTransforms"
             d="m 167.54005,195.30058 c -1.76924,5.34453 -3.33979,11.16865 -4.4912,16.66151 5.48991,0.20679 12.84587,0.62127 18.01285,0.88832 -0.0218,-3.70951 0.16695,-8.36012 0.73174,-14.15004 -4.02372,-0.91462 -9.91562,-2.33174 -14.25339,-3.39979 z"
             transform="translate(-85.942444,-31.456833)"
             inkscape:label="green" /><path
             id="rect26935-5"
             clip-path="none"
             style="display:inline;fill:#ffa10a;fill-opacity:1;stroke:none;stroke-width:1.00012;stroke-linecap:round;stroke-linejoin:miter;stroke-dasharray:none;stroke-opacity:1"
             class="UnoptimicedTransforms"
             d="m 178.52387,176.10588 c -1.071,-0.0178 -2.3256,0.78524 -3.77599,2.91249 -2.4257,3.55767 -4.97467,9.53625 -7.20783,16.28221 4.33777,1.06805 10.22967,2.48517 14.25339,3.39979 0.39079,-4.00615 0.96021,-8.55379 1.76785,-13.72268 0,0 -1.53882,-8.81377 -5.03742,-8.87181 z"
             transform="translate(-85.942444,-31.456833)"
             inkscape:label="yellow" /></g><path
           style="opacity:1;fill:#f32848;fill-opacity:1;stroke:none;stroke-width:1;stroke-linecap:round;stroke-linejoin:round;stroke-opacity:1"
           d="m 92.708631,153.72302 c 4.866907,1.54316 9.496399,-2.96763 10.446039,-7.47842 0.94964,-4.51079 0.35612,-12.93885 -4.273376,-15.55036 -4.629497,-2.61151 -9.971222,2.13669 -11.514389,6.76619 -1.543166,4.6295 -1.424461,14.00719 5.341726,16.26259 z"
           id="path26146"
           inkscape:label="scarf knot" /><path
           id="path14106"
           style="display:inline;opacity:0.2;fill:url(#linearGradient42063);fill-opacity:1;stroke:none;stroke-width:1;stroke-linecap:round;stroke-linejoin:round;stroke-opacity:1"
           inkscape:label="scarf shadow"
           d="m 92.76798,121.55382 c -5.097116,6.40914 -7.126646,13.46608 -7.908045,20.16104 -0.417401,-0.23134 -0.834153,-0.46284 -1.258321,-0.70021 -3.50877,7.31818 -3.98206,15.80578 -2.113049,23.16137 -3.251936,9.90617 -5.806652,21.39432 -6.286438,29.32534 0.03419,-0.048 0.06625,-0.0982 0.101286,-0.14521 3.274049,-4.39657 9.260438,-7.29671 18.801953,-12.16101 l 1.019576,0.2806 c -0.01313,-1.91434 0.0261,-4.06428 0.147794,-6.50916 11.148904,3.18997 18.931794,0.67801 24.559744,-1.12293 7.41902,-2.3741 15.66957,-9.55603 23.14794,-17.27181 7.47836,-7.71583 13.72412,-9.55163 19.30321,-11.39156 -0.77159,-1.78053 -1.60221,-4.4065 -2.47685,-6.59236 -0.37283,0.0559 -0.75779,0.1229 -1.14567,0.19224 -0.10959,-1.10433 -0.2092,-2.54684 -0.3085,-4.16874 -3.02698,0.59352 -17.27155,3.44236 -33.29668,1.95854 -16.02507,-1.48381 -23.50382,-8.0126 -32.28795,-15.01614 z m 4.894791,12.27832 c 0.135172,10e-4 0.278666,0.022 0.431499,0.0636 1.835543,1.02526 3.77031,4.87826 3.04271,7.52409 -0.72761,2.64583 -5.589325,-1.96784 -5.589325,-1.96784 0,0 -0.221413,-5.64498 2.115116,-5.61981 z m 59.295089,1.78852 c 0.0323,1.18035 0.0889,2.49287 0.0889,2.49287 0,0 -10.00242,2.9012 -13.47308,4.39198 -3.15196,1.35387 -7.57846,2.58326 -11.24737,0.0889 11.69239,-1.09803 16.20088,-4.80066 24.63157,-6.97374 z m 1.86965,4.15427 1.42421,4.68912 c 0,0 -6.23197,2.37388 -9.3183,3.85764 -3.08633,1.48381 -7.95312,2.31504 -10.08982,2.67116 -2.13669,0.35611 -13.65095,1.95878 -8.84339,-1.06815 4.80755,-3.02697 14.54138,-6.94473 26.8273,-10.14977 z m -21.49326,13.55576 c 1.51349,0.003 2.93038,0.0213 4.10259,0.0362 2.25539,0.0594 -4.92612,6.64739 -10.03039,10.08983 -5.10431,3.4424 -7.95301,4.86689 -11.98893,5.28236 -4.03597,0.41546 2.67086,-13.41345 5.69784,-14.4818 2.27023,-0.80126 7.67847,-0.9349 12.21889,-0.92656 z" /></g><g
         id="g26020"
         inkscape:label="cheeks"><path
           id="path43375"
           style="display:inline;opacity:1;fill:#452d26;fill-opacity:1;stroke:none;stroke-width:1;stroke-linecap:round;stroke-linejoin:round;stroke-opacity:1"
           inkscape:label="cheek"
           d="m 152.69456,119.83682 c 0.91772,3.27262 1.36933,4.89541 1.5032,5.5752 -3.5917,1.48804 -7.24084,2.6706 -7.24084,2.6706 -2.96093,-2.69123 -8.43569,-4.7387 -10.86135,-4.51084 -3.94432,0.37052 -8.66583,2.96765 -10.86187,8.96225 1.71876,6.13789 9.20041,8.36244 10.98021,8.30957 5.99459,-0.17806 20.61495,-5.66054 20.61495,-5.66054 2.59207,-1.58032 5.26287,-4.84466 6.3312,-6.8033 -2.32318,-3.1922 -5.2422,-5.34146 -8.4279,-9.0811 z"
           sodipodi:nodetypes="cccscscccc" /><path
           id="path9973"
           style="display:inline;opacity:1;fill:#d2ced4;fill-opacity:1;stroke:none;stroke-width:1;stroke-linecap:round;stroke-linejoin:round;stroke-opacity:1"
           inkscape:label="white"
           d="m 154.73216,119.29866 -2.03761,0.53795 c 0.91772,3.27262 1.50327,5.57537 1.50327,5.57537 l 0.39326,1.5565 c -1.15775,0.53673 -4.12953,1.85585 -5.06998,2.31097 0.67281,2.12067 1.02649,3.22798 1.55598,3.60753 0.34405,0.24662 0.73477,0.50067 1.36374,0.63665 l -0.43408,0.20361 c -0.79375,0.59532 -1.01619,0.8653 -0.43356,1.47484 0.59327,0.62071 1.32291,1.38906 1.32291,1.38906 l 3.93258,-1.40818 c 2.59207,-1.58032 5.26309,-4.84456 6.33139,-6.8032 -2.50717,-3.1244 -5.80224,-5.58249 -8.4279,-9.0811 z m -19.21123,4.17391 c 5.09322,4.46483 9.91618,10.2862 2.17712,17.42994 l 7.15564,-1.84795 c 4.88304,-3.28545 2.63118,-8.55116 1.24333,-10.17664 -1.29429,-1.32147 -4.64157,-4.17752 -4.64157,-4.17752 z" /><path
           id="path12999"
           style="display:inline;opacity:1;fill:#ffffff;fill-opacity:1;stroke:none;stroke-width:1;stroke-linecap:round;stroke-dasharray:none;stroke-opacity:1"
           d="m 154.87995,119.49245 -2.12028,0.57826 c 0.87872,3.14367 1.43815,5.34127 1.43815,5.34127 l 0.39326,1.5565 c -1.15775,0.53673 -4.12953,1.85585 -5.06998,2.31097 0.35301,1.11265 0.61783,1.9439 0.86662,2.53989 l 2.21072,0.40618 c 0,0 4.13411,-0.19844 4.89479,-0.39688 0.51785,-0.13509 2.88252,-3.07804 4.35425,-4.96093 -2.22383,-2.40366 -4.80758,-4.55558 -6.96701,-7.37526 z m -10.68824,7.98659 c -1.9242,0.0208 -3.47369,1.51205 -2.50734,2.56367 1.07193,1.1665 4.30663,2.75218 6.06785,2.64015 -0.26019,-1.6558 -1.04167,-3.08637 -1.6552,-3.80494 -0.36237,-0.36998 -0.88949,-0.86194 -1.4552,-1.37614 -0.15162,-0.0167 -0.30195,-0.0243 -0.45011,-0.0227 z"
           inkscape:label="white light" /><path
           id="path26023"
           style="display:inline;opacity:1;fill:#0a0d15;fill-opacity:1;stroke:none;stroke-width:1;stroke-linecap:round;stroke-linejoin:round;stroke-opacity:1"
           inkscape:label="nose"
           d="m 161.12298,125.66055 c -2.00727,0.16954 -2.72593,1.62934 -2.67729,2.52627 0.0522,0.96245 1.3069,2.70345 2.76307,3.04858 1.08856,-1.22974 1.43019,-1.90025 1.9513,-2.85564 -0.67653,-0.92961 -1.34027,-1.83196 -2.03708,-2.71921 z"
           sodipodi:nodetypes="csccc" /><path
           style="display:inline;opacity:1;fill:#43496b;fill-opacity:1;stroke:none;stroke-width:1.00012;stroke-linecap:round;stroke-linejoin:round"
           d="m 161.25874,126.17961 c -0.72497,0.15201 -1.51647,0.54199 -1.37978,1.3447 0.14789,0.86848 1.48502,1.41486 2.65432,0.87698 1.16931,-0.53788 -1.27454,-2.22168 -1.27454,-2.22168 z"
           id="path27533"
           sodipodi:nodetypes="cssc"
           inkscape:label="nose light" /></g></g><g
       inkscape:groupmode="layer"
       id="layer2"
       inkscape:label="Lines"
       style="display:inline"><g
         id="g26140"
         inkscape:label="Tail"
         style="display:inline"><path
           style="opacity:1;fill:none;stroke:#000000;stroke-width:1;stroke-linecap:round;stroke-linejoin:round;stroke-opacity:1"
           d="m 82.597139,143.3224 c -7.474468,1.15312 -13.50331,5.07379 -15.404227,6.89205 -1.930558,1.84661 -9.270323,12.3904 -9.857883,16.58725 -0.58756,4.19686 -1.196446,14.0005 5.951098,15.18419 3.14291,0.52049 8.031886,0.84391 13.391045,0.99707"
           id="path12506"
           sodipodi:nodetypes="csssc"
           inkscape:label="tail" /></g><g
         id="g14880"
         inkscape:label="Body"
         style="display:inline"><path
           style="display:inline;opacity:1;fill:none;stroke:#000000;stroke-width:1;stroke-linecap:round;stroke-linejoin:round;stroke-opacity:1"
           d="m 159.88852,138.70284 c 5.60743,-4.88191 11.66079,-9.1497 13.18343,-8.83953 3.20503,0.65288 9.25899,3.85791 11.69244,5.87589 -1.22066,1.48862 -2.79975,2.45453 -4.24283,3.04757"
           id="path8868"
           sodipodi:nodetypes="cscc"
           inkscape:label="arm l" /><path
           style="opacity:1;fill:none;stroke:#000000;stroke-width:1;stroke-linecap:round;stroke-linejoin:round;stroke-opacity:1"
           d="M 165.96276,150.95589 C 163.61119,148.6191 162.192,147.115 160.8788,145.7047 m -65.363184,43.19945 c 1.615742,2.15607 3.217036,3.98491 4.730784,5.5347 10.20863,3.08633 20.65468,6.29136 41.1313,5.81654 20.47661,-0.47482 39.82554,-3.91726 46.59172,-5.81654 2.3144,-3.05304 4.08747,-6.35115 5.38702,-9.49193 2.68492,3.9722 3.57521,6.04948 5.23708,6.4056 1.66187,0.35611 13.41367,-0.53418 17.92446,-2.43346 -0.28657,-3.88351 -0.47403,-5.93376 -0.77508,-10.66236 -0.33749,-5.30099 -5.2009,-17.60384 -8.55345,-21.69916 -3.16012,-3.86027 -6.57794,-7.04854 -8.65528,-7.40466 -1.81006,-0.3103 -6.90963,-0.71072 -16.71223,7.6724"
           id="path8862"
           sodipodi:nodetypes="ccccsccscsssc"
           inkscape:label="body" /><path
           style="display:inline;opacity:1;fill:none;fill-opacity:1;stroke:#000000;stroke-width:1;stroke-linecap:round;stroke-linejoin:round;stroke-opacity:1"
           d="m 216.44502,188.37114 c 1.60777,-0.21064 2.72735,-0.40699 3.15929,-0.57977 2.73022,-4.15468 5.10432,-11.6331 4.15468,-15.07554 -2.26584,-0.45317 -5.65594,-0.83468 -9.48147,-1.14754 m -23.76084,19.13005 c 2.09922,-0.16007 4.04023,-0.3425 6.3043,-0.52137"
           id="path12625"
           inkscape:label="leg l"
           sodipodi:nodetypes="cccccc" /><path
           style="opacity:1;fill:#000000;fill-rule:nonzero;stroke:none;stroke-width:0.26458333;stroke-linecap:round;stroke-linejoin:round;stroke-opacity:1;fill-opacity:1"
           d="m 194.61867,182.83641 c 1.67258,-4.96806 1.60075,-10.12058 1.60075,-10.12058 0,0 -0.94238,5.0404 -2.54838,9.80123 -0.25424,0.75442 -0.51758,1.49271 -0.78677,2.26536 l 0.94434,0.329 c 0.26841,-0.77043 0.53399,-1.51513 0.79006,-2.27501 z"
           id="path8864"
           sodipodi:nodetypes="cc"
           inkscape:label="body bend" /><path
           style="opacity:1;fill:none;stroke:#000000;stroke-width:1;stroke-linecap:round;stroke-linejoin:round;stroke-opacity:1"
           d="m 138.43746,161.10217 c 3.88726,10.39404 14.45719,16.6984 18.577,18.21545 4.44351,1.63625 7.91848,-3.04487 8.74941,-6.96213 -0.77158,5.87589 3.71025,6.64542 4.99158,5.66307 1.78058,-1.36511 6.23376,-6.60849 8.4298,-11.29734 2.19605,-4.68885 3.08633,-13.59172 3.32374,-16.49999 4.68885,-1.36511 10.20863,-5.81655 8.19065,-7.24101 -2.01799,-1.42446 -8.25001,-4.86691 -13.94785,-4.33274 -5.69784,4.21403 -11.16597,13.17276 -11.8782,13.88499 -2.05896,-0.88818 -6.16284,-3.33337 -9.13898,-4.99416"
           id="path8866"
           sodipodi:nodetypes="cscsscsccc"
           inkscape:label="arm r" /><path
           style="display:inline;fill:none;stroke:#000000;stroke-width:1;stroke-linecap:round"
           d="m 173.30208,175.55104 c 10.51719,3.63802 19.58684,7.93051 11.78164,19.43988"
           id="path6603"
           sodipodi:nodetypes="cc"
           inkscape:label="division" /><path
           style="display:inline;fill:none;fill-opacity:1;stroke:#000000;stroke-width:1;stroke-linecap:round;stroke-opacity:1"
           d="m 149.75417,150.94479 c 0.26458,10.05416 2.03515,22.0065 8.25286,22.60181 6.21771,0.59532 8.01901,-7.05754 8.94505,-9.57108 2.11667,6.05234 4.89949,10.80481 10.45574,6.04231"
           id="path11610"
           sodipodi:nodetypes="cscc"
           inkscape:label="arm division" /></g><g
         id="g14886"
         inkscape:label="Scarf"><path
           style="opacity:1;fill:none;stroke:#000000;stroke-width:1;stroke-linecap:round;stroke-linejoin:round;stroke-opacity:1"
           d="m 102.12168,149.07007 c 2.89879,0.70162 5.8787,1.11566 9.33686,1.24395 6.09163,0.22599 15.4905,0.0386 20.68207,-2.30826 10.62226,-4.80185 20.54374,-8.3493 27.66605,-9.41764 0.87464,2.18586 1.70557,4.81178 2.47716,6.59236 -5.57914,1.83993 -11.82519,3.67563 -19.3036,11.39146 -7.47842,7.71583 -15.72842,14.89748 -23.14749,17.27158 -5.63304,1.80257 -13.33265,4.33852 -24.497888,1.13539 M 81.454403,164.04466 c -1.830076,-7.32519 -1.340883,-15.75569 2.14698,-23.03027 h 4e-6 c 0.997921,0.55847 1.975605,1.10078 2.940206,1.62435"
           id="path4857"
           sodipodi:nodetypes="cssccssccccc"
           inkscape:label="scarf d" /><path
           style="opacity:1;fill:none;stroke:#000000;stroke-width:1;stroke-linecap:round;stroke-linejoin:round;stroke-opacity:1"
           d="m 84.856851,141.60983 c 0.759843,-6.76905 2.750535,-13.56689 7.911134,-20.05587 8.784175,7.00359 16.262595,13.53236 32.287765,15.01618 0.78423,0.0726 1.9033,0.15824 2.6779,0.21087 m 29.77553,-2.00359 c 0.33779,-0.0659 0.62006,-0.12213 0.84334,-0.16591 0.0987,1.61256 0.19746,3.0609 0.3063,4.16289"
           id="path5225"
           sodipodi:nodetypes="ccscccc"
           inkscape:label="scarf u" /><path
           style="opacity:1;fill:none;fill-opacity:1;stroke:#000000;stroke-width:1;stroke-linecap:round;stroke-linejoin:round;stroke-opacity:1"
           d="m 92.708631,153.72302 c 4.866907,1.54316 9.496399,-2.96763 10.446039,-7.47842 0.94964,-4.51079 0.35612,-12.93885 -4.273376,-15.55036 -4.629497,-2.61151 -9.971222,2.13669 -11.514389,6.76619 -1.543166,4.6295 -1.424461,14.00719 5.341726,16.26259 z"
           id="path12627"
           inkscape:label="scarf knot" /><path
           style="opacity:1;fill:none;fill-opacity:1;stroke:#000000;stroke-width:1;stroke-linecap:round;stroke-linejoin:round;stroke-opacity:1"
           d="m 97.618887,153.52102 c -4.196855,26.85988 -2.014489,37.10021 -1.259056,40.28983 10.492139,5.2041 14.605059,7.05071 17.626799,8.1419 -10.57608,1.42693 -27.447445,2.85386 -35.253597,1.67874 -3.357486,-4.61654 -3.609298,-8.30978 -3.609298,-8.30978 0.23922,-12.35964 6.601079,-35.79862 12.64296,-46.04875"
           id="path13387"
           inkscape:label="scarf drop"
           sodipodi:nodetypes="cccccc" /></g><g
         id="g23564"
         inkscape:label="Head"
         style="display:inline"><path
           id="path6679"
           style="opacity:1;fill:none;stroke:#000000;stroke-width:1;stroke-linecap:round;stroke-linejoin:round;stroke-opacity:1"
           d="m 154.73204,119.29851 c 2.49093,-1.37255 2.06448,-4.39967 1.07037,-6.50813 M 123.92783,94.845371 c -7.43904,0.871768 -15.78738,6.707049 -19.22983,10.327539 -2.83198,2.97845 -7.106661,9.03885 -10.876633,17.16511"
           sodipodi:nodetypes="cccsc"
           inkscape:label="head" /><path
           id="path12510"
           style="opacity:1;fill:none;stroke:#000000;stroke-width:1;stroke-linecap:round;stroke-linejoin:round;stroke-opacity:1"
           inkscape:label="cheek mid"
           d="m 152.44082,133.52363 6.93235,-0.45126 m -7.36661,0.65481 c -0.79375,0.59532 -1.01602,0.86536 -0.43339,1.4749 0.59328,0.62071 1.32291,1.38906 1.32291,1.38906 l 3.93258,-1.40818 c 2.59207,-1.58032 5.26308,-4.84456 6.33139,-6.8032 -2.50718,-3.1244 -5.80223,-5.58249 -8.4279,-9.0811 l -2.03761,0.53795 c 0.91772,3.27262 1.50327,5.57537 1.50327,5.57537 l 0.39335,1.5567 c -1.15775,0.53673 -4.12973,1.85588 -5.07018,2.311 0.67281,2.12068 1.0266,3.22775 1.55609,3.6073 0.34405,0.24662 0.73477,0.50067 1.36374,0.63665"
           sodipodi:nodetypes="cccsccccccccsc" /><path
           id="path9581"
           style="display:inline;opacity:1;fill:#000000;fill-rule:nonzero;stroke:none;stroke-width:0.26458333;stroke-linecap:round;stroke-linejoin:round;stroke-opacity:1;fill-opacity:1"
           inkscape:label="cheek side"
           d="m 141.60859,125.39107 c 1.53891,0.66116 2.56958,1.10302 3.7229,1.72349 0.98959,0.53239 1.62543,0.96806 1.62543,0.96806 0,0 -0.46148,-0.61753 -1.34136,-1.37875 -0.91993,-0.79587 -2.13756,-1.60428 -3.6139,-2.23231 -2.23171,-0.95401 -4.5516,-1.52922 -5.95285,-1.39759 -4.13517,0.38845 -9.02101,3.10907 -11.2846,9.28807 a 17.78713,17.78713 0 0 0 -0.0544,0.15048 9.6611552,9.6611552 0 0 0 0.0424,0.15634 c 1.77406,6.33537 9.42501,8.73546 11.47654,8.67452 4.08226,-0.12126 11.96631,-2.61632 16.75142,-4.25623 l -0.0172,-0.0502 c 0.042,-0.0162 -0.0607,-0.45172 -0.0607,-0.45172 0,0 -0.18644,-0.40682 -0.22915,-0.39393 l -0.0172,-0.0502 c -4.77256,1.63561 -12.56163,4.08696 -16.45692,4.20266 -1.50807,0.0448 -8.82042,-2.00421 -10.48388,-7.94462 l -0.012,0.30682 c 2.12849,-5.8102 6.68567,-8.28384 10.43914,-8.63643 1.21396,-0.11404 3.28141,0.3875 5.46626,1.32148 z"
           sodipodi:nodetypes="cscsc" /><path
           style="display:inline;opacity:1;fill:none;stroke:#000000;stroke-width:1;stroke-linecap:round;stroke-dasharray:none;stroke-opacity:1"
           d="m 133.27422,99.751227 3.4985,-0.283138 3.7611,6.458781 c 0,0 4.7445,9.52088 7.53593,16.74819 3.30729,-7.40833 3.67871,-11.41915 3.67871,-11.41915 0,0 -2.09826,-5.27474 -5.05718,-9.32518 4.61817,4.50886 7.68037,9.69466 7.68037,9.69466 0,0 4.73956,3.87578 11.69038,9.44613 -8.30445,-25.428678 -19.97191,-24.122244 -29.51182,-30.320008 -1.78594,-6.022595 -0.25295,-7.678787 1.07771,-8.271553 1.40844,-0.627416 2.94584,0.293928 3.95407,2.431346 0.66899,1.418227 3.20502,1.041853 2.63449,-0.887294 -0.83249,-2.814926 -4.84951,-5.305976 -7.77116,-3.465605 -3.02739,1.906982 -3.34133,6.257026 -2.13466,10.430291 -2.09754,1.023465 -3.94289,1.569093 -6.95008,2.602327 m -2.01713,0.708486 c -0.35834,0.128855 -0.73152,0.264721 -1.12101,0.408596 -3.16544,2.608754 -7.82458,8.278204 -7.82458,8.278204 l 1.90559,-0.29487"
           id="path5675"
           sodipodi:nodetypes="cccccccccsssscccccc"
           inkscape:label="leaf" /><path
           style="opacity:1;fill:none;fill-opacity:1;stroke:#000000;stroke-width:1;stroke-linecap:round;stroke-linejoin:miter;stroke-opacity:1"
           d="m 140.04911,104.83748 c -3.93469,-2.76333 -8.09022,-5.596519 -11.58332,-8.981271 -0.7729,-1.906047 -2.11447,-3.915487 -2.76993,-2.560083 -0.75644,1.564214 -0.54941,3.931989 -0.9233,5.330007 -0.96529,3.609297 -5.24608,10.492137 -3.3575,21.613807 1.04922,5.7497 0.50363,8.6875 -1.21708,13.68176 2.35024,-0.62953 2.18236,-0.62953 2.81189,-1.76268 0.62953,-1.13315 3.35749,-7.89009 3.35749,-9.65277 0,-1.76268 -2.09843,-6.96678 -2.18237,-9.14915 -0.0839,-2.18236 1.93056,-10.15639 3.48339,-11.49938 1.55284,-1.343 4.42199,2.21156 9.91987,6.78613 0.56342,0.4688 -0.47694,6.60183 -5.63907,11.09247 2.81189,0.20984 4.11488,-0.88623 4.99426,-1.97252 1.0455,-1.2915 4.18632,-6.45822 4.35457,-9.98655"
           id="path12623"
           sodipodi:nodetypes="ccssccsscsscsc"
           inkscape:label="ear 1 r" /><path
           style="opacity:1;fill:none;fill-opacity:1;stroke:#000000;stroke-width:1;stroke-linecap:round;stroke-linejoin:round;stroke-opacity:1"
           d="m 124.89846,95.856207 c -6.04348,4.952293 -10.57608,12.674513 -11.41545,15.864123 -1.51087,8.56158 3.98141,12.9445 8.18175,14.74834"
           id="path14121"
           inkscape:label="ear 2 r"
           sodipodi:nodetypes="ccc" /><path
           style="opacity:1;fill:none;fill-opacity:1;stroke:#000000;stroke-width:1;stroke-linecap:round;stroke-linejoin:round;stroke-opacity:1"
           d="m 106.03719,103.76158 c 3.60929,-7.470412 9.54424,-13.277348 13.7411,-15.459716 1.59481,-2.769924 2.28071,-2.793634 2.70039,-2.122137 0.41969,0.671497 0.6571,2.038202 0.74103,2.541825 1.00725,2.098428 1.42694,4.448668 1.84662,5.959536"
           id="path14125"
           sodipodi:nodetypes="ccscc"
           inkscape:label="ear l" /><path
           style="opacity:1;fill:#000000;fill-opacity:1;stroke:none;stroke-width:1;stroke-linecap:round;stroke-linejoin:round;stroke-opacity:1"
           d="m 140.3687,120.48561 c 3.3831,1.83993 4.80755,1.7509 4.80755,1.7509 3.5018,-0.83094 6.08364,-0.83094 6.49911,-0.77158 0.11871,1.36511 -0.1187,3.35341 -0.1187,3.35341 l -0.35613,-1.63219 c -2.01798,0.14838 -4.98561,0.65288 -5.87589,0.83094 -2.43346,-1.2464 -4.0063,-2.58184 -4.95594,-3.53148 z"
           id="path12514"
           sodipodi:nodetypes="ccccccc"
           inkscape:label="eye r" /><path
           style="display:inline;fill:none;stroke:#000000;stroke-width:1;stroke-linecap:round"
           d="m 124.30456,130.04271 c 0.52916,0.46302 1.33945,1.14101 1.33945,1.14101"
           id="path6605"
           inkscape:label="division side" /><path
           style="display:inline;fill:none;stroke:#000000;stroke-width:1;stroke-linecap:round"
           d="m 113.60547,111.25729 c -5.22552,6.18464 -8.10287,10.88099 -11.21172,17.33021"
           id="path6607"
           inkscape:label="division back" /></g><g
         inkscape:groupmode="layer"
         id="layer8"
         inkscape:label="Nails"
         style="display:inline"><rect
           style="display:inline;fill:#d2ced4;fill-opacity:1;stroke:none;stroke-width:0.573536;stroke-linecap:round"
           id="rect7000-3"
           width="1.2869232"
           height="1.449367"
           x="166.47269"
           y="229.90031"
           ry="0.28567231"
           transform="rotate(-12.811885)"
           inkscape:label="foot right 4" /><rect
           style="display:inline;fill:#d2ced4;fill-opacity:1;stroke:none;stroke-width:0.491446;stroke-linecap:round"
           id="rect7000-9-0"
           width="0.94500208"
           height="1.4492018"
           x="166.96973"
           y="228.61549"
           ry="0.28563973"
           transform="matrix(0.97684494,-0.21394856,0.22756385,0.97376315,0,0)"
           inkscape:label="foot right 3" /><rect
           style="display:inline;fill:#d2ced4;fill-opacity:1;stroke:none;stroke-width:0.573536;stroke-linecap:round"
           id="rect7000-3-5"
           width="1.2869232"
           height="1.449367"
           x="-165.43088"
           y="228.93698"
           ry="0.28567231"
           transform="rotate(-87.50523)"
           inkscape:label="foot left 1" /><rect
           style="display:inline;fill:#d2ced4;fill-opacity:1;stroke:none;stroke-width:0.491446;stroke-linecap:round"
           id="rect7000-9-0-8"
           width="0.94500208"
           height="1.4492018"
           x="-164.95451"
           y="230.30563"
           ry="0.28563973"
           transform="matrix(0.05151338,-0.9986723,0.99929409,0.03756753,0,0)"
           inkscape:label="foot left 2" /><rect
           style="display:inline;fill:#d2ced4;fill-opacity:1;stroke:none;stroke-width:0.573536;stroke-linecap:round"
           id="rect7000"
           width="1.2869232"
           height="1.449367"
           x="-57.386917"
           y="230.60361"
           ry="0.28567231"
           transform="rotate(-66.417505)"
           inkscape:label="hand right 4" /><rect
           style="display:inline;fill:#d2ced4;fill-opacity:1;stroke:none;stroke-width:0.491446;stroke-linecap:round"
           id="rect7000-9"
           width="0.94500208"
           height="1.4492018"
           x="-56.9119"
           y="231.10858"
           ry="0.28563973"
           transform="matrix(0.40738279,-0.91325749,0.91885533,0.3945946,0,0)"
           inkscape:label="hand right 3" /><rect
           style="display:inline;fill:#d2ced4;fill-opacity:1;stroke:none;stroke-width:0.573536;stroke-linecap:round"
           id="rect7000-92"
           width="1.2869232"
           height="1.449367"
           x="-0.28129667"
           y="226.77533"
           ry="0.28567231"
           transform="rotate(-53.074643)"
           inkscape:label="hand left 1" /><rect
           style="display:inline;fill:#d2ced4;fill-opacity:1;stroke:none;stroke-width:0.491446;stroke-linecap:round"
           id="rect7000-9-5"
           width="0.94500208"
           height="1.4492018"
           x="0.22110875"
           y="226.8235"
           ry="0.28563973"
           transform="matrix(0.60714557,-0.79459063,0.80298857,0.59599443,0,0)"
           inkscape:label="hand left 2" /></g></g></g></svg>
